<svg version="1.1" id="Layer_1" xmlns="http://www.w3.org/2000/svg" xmlns:xlink="http://www.w3.org/1999/xlink" x="0px" y="0px"
	 width="100%" viewBox="0 0 896 1024" enable-background="new 0 0 896 1024" xml:space="preserve">
<path fill="#000000" opacity="1.000000" stroke="none" 
	d="
M728.381958,569.247803 
	C744.438477,561.383911 760.663818,562.505432 776.999878,566.475525 
	C784.298340,568.249268 791.270691,571.018921 798.121948,574.084717 
	C806.155334,577.679321 810.736877,584.200134 813.362000,592.275391 
	C819.061157,609.806824 816.831970,626.068176 805.568115,640.947510 
	C802.207764,645.386475 797.899414,648.278992 792.819763,650.194275 
	C788.394409,651.862976 784.443726,654.179626 781.092285,657.595032 
	C778.909973,659.819092 778.265930,661.949097 780.087463,664.658203 
	C781.200928,666.314148 781.944336,668.242615 783.178223,669.790100 
	C792.243469,681.159546 791.578003,693.636047 786.883057,706.223694 
	C781.423584,720.860718 770.413696,730.589783 756.161926,735.833740 
	C745.082031,739.910706 733.623413,737.014526 723.036499,732.711548 
	C708.362854,726.747620 693.532959,722.350708 677.489258,723.318420 
	C664.127136,724.124390 651.902588,729.161194 639.565247,733.610291 
	C618.108704,741.348083 596.786011,749.457214 575.417419,757.438110 
	C574.057983,757.945862 572.460205,758.166748 571.697083,759.745605 
	C571.732056,761.701111 573.345764,762.104370 574.705933,762.553589 
	C602.075012,771.592957 628.606079,782.888489 655.726379,792.606018 
	C678.255066,800.678406 699.856323,797.712708 721.321716,788.767517 
	C732.704407,784.023926 744.708557,783.020691 756.576660,786.191589 
	C775.830627,791.335876 785.321533,805.477722 789.278259,824.049622 
	C791.283875,833.463318 789.492126,841.965759 783.740417,850.013367 
	C776.676086,859.897644 777.818542,864.571960 789.650391,868.947754 
	C805.815552,874.925964 812.694214,887.480408 815.724487,902.760315 
	C817.868469,913.570984 815.743408,924.336609 810.854736,934.321960 
	C808.620117,938.886353 805.337524,942.884155 800.766541,945.131348 
	C782.531860,954.095947 763.575745,959.680237 742.913757,956.337830 
	C720.531067,952.717041 705.837402,935.887512 705.807495,913.105286 
	C705.796631,904.844421 702.923706,898.284180 697.209778,892.589722 
	C685.081787,880.502991 669.970947,873.406128 654.232300,867.867371 
	C589.995239,845.261047 525.614380,823.063416 461.314148,800.635803 
	C457.667480,799.363892 454.433563,799.269043 450.709076,800.571350 
	C389.730713,821.892517 328.723022,843.130310 267.680023,864.265686 
	C251.885605,869.734253 236.430450,875.806091 222.756607,885.669556 
	C218.680634,888.609680 215.121872,892.102173 211.854263,895.912170 
	C208.118164,900.268433 206.050568,905.269775 206.334305,911.022095 
	C207.819687,941.134094 183.583618,956.910645 159.725571,957.301270 
	C142.834549,957.577820 127.161964,952.943054 112.131721,945.716248 
	C107.148048,943.319946 103.410263,939.291565 101.237846,934.363159 
	C91.329262,911.884521 94.606606,894.114990 109.058708,876.674194 
	C111.316071,873.949951 114.603157,872.459412 117.840904,871.073608 
	C119.830513,870.222046 121.888725,869.498108 123.792999,868.485352 
	C133.828461,863.148376 135.828003,858.760559 128.440948,850.565369 
	C112.816551,833.231567 126.893959,791.456787 156.907364,785.745422 
	C168.749435,783.491943 180.414398,784.274963 191.664307,789.115051 
	C202.606461,793.822754 214.034866,796.769775 225.938126,797.486572 
	C238.497910,798.242859 250.347687,794.788391 261.969940,790.580261 
	C286.551910,781.679871 310.657440,771.501709 335.431305,763.109863 
	C336.986389,762.583130 338.680450,762.189148 339.409180,760.376770 
	C339.145355,758.028931 337.149750,757.709839 335.494354,757.100464 
	C309.401550,747.494324 283.276581,737.975098 257.206696,728.307251 
	C234.641129,719.938904 212.718216,722.383301 191.208298,731.977905 
	C184.096664,735.150085 176.559830,736.207336 168.972626,737.293762 
	C150.170349,739.986267 125.831322,719.194275 122.609512,697.418884 
	C121.147644,687.538452 122.538765,678.789917 128.331421,670.431335 
	C135.004837,660.801758 134.074966,655.383179 122.792534,652.108643 
	C98.248268,644.985413 88.640373,608.983826 101.387115,585.909607 
	C103.776894,581.583618 106.737694,577.736389 111.179771,575.504150 
	C130.208389,565.941589 150.125183,560.844666 171.517242,564.804688 
	C192.165909,568.627075 206.489120,585.462219 206.160431,606.398071 
	C205.963379,618.950745 212.496857,627.026978 221.520645,633.927917 
	C233.279465,642.920532 246.549698,649.164124 260.458466,653.974976 
	C323.550201,675.797668 386.692688,697.473694 449.780273,719.308350 
	C454.119934,720.810303 457.986725,720.765564 462.335632,719.257690 
	C526.512085,697.005615 590.769958,674.988098 654.918640,652.656677 
	C667.836670,648.159729 680.120972,642.098022 691.020447,633.601379 
	C700.564270,626.161621 706.161377,617.265259 705.955017,604.279297 
	C705.703247,588.439819 714.268860,576.985168 728.381958,569.247803 
M791.664062,936.885132 
	C798.321350,934.932190 801.673157,929.938293 803.283630,923.673950 
	C806.217285,912.262207 807.291504,900.998901 798.815002,890.342102 
	C797.474182,886.984131 795.424377,884.086182 792.054871,882.698242 
	C783.774841,879.287292 776.052063,875.094849 769.976440,868.248291 
	C772.467712,873.445312 776.049133,877.519348 781.450562,879.412292 
	C788.314636,881.817871 794.487427,885.118408 799.130432,891.700500 
	C799.082214,892.945435 800.338806,894.159363 799.272644,895.433655 
	C772.221375,893.286804 745.207336,891.052368 721.800964,909.410217 
	C725.586426,902.776733 731.780029,899.169800 737.944519,895.482727 
	C731.390808,897.491150 725.484497,900.803894 718.894348,904.739685 
	C718.002930,896.020081 713.776611,889.631531 708.334473,884.134888 
	C709.904724,882.358337 711.293640,884.550659 712.471069,883.299438 
	C712.118164,881.399536 710.692688,880.236511 709.324463,879.070007 
	C694.593750,866.511353 678.009399,857.109924 659.978088,850.192078 
	C659.143799,849.872009 657.655884,848.823364 657.408997,849.911865 
	C656.502869,853.906494 654.146851,851.235840 652.908325,850.811401 
	C618.274658,838.940918 583.695312,826.911926 549.085876,814.970398 
	C541.993042,812.523071 534.990784,809.503662 526.823242,809.966858 
	C528.691345,812.254761 531.070435,812.641113 533.188171,813.382812 
	C575.285767,828.126587 617.515808,842.503662 659.451538,857.693054 
	C674.923462,863.297058 689.916870,870.478699 702.189392,881.985962 
	C708.301880,887.717285 713.979431,893.974731 715.674194,902.529785 
	C716.670471,907.558716 716.798157,912.767456 717.203003,917.904236 
	C717.935608,927.199402 722.170959,934.613953 730.097473,939.266113 
	C750.777222,951.403381 771.026855,946.281555 790.987976,936.999084 
	C790.987976,936.999084 790.953003,937.019409 791.664062,936.885132 
M112.500221,891.452393 
	C103.864151,903.567993 105.364281,916.217407 110.811790,928.903442 
	C112.262596,932.282043 115.039398,934.897644 118.501228,936.493958 
	C132.285385,942.850342 146.568130,946.754700 161.958115,946.003174 
	C178.364426,945.202026 195.996841,934.051575 195.152359,913.371155 
	C194.569977,899.109680 201.573563,888.706177 212.054184,879.945679 
	C224.392380,869.632385 238.681458,862.756409 253.514847,857.287598 
	C281.160706,847.094971 309.116364,837.743591 336.931122,828.007874 
	C404.485443,804.362305 472.038818,780.714172 539.580750,757.033508 
	C578.380676,743.429993 617.125122,729.667603 655.960510,716.166443 
	C671.763000,710.672668 687.838745,710.445557 704.163086,714.285889 
	C712.356812,716.213379 719.751831,720.142639 727.695312,722.479675 
	C751.335510,729.435120 771.583252,722.202271 778.018433,696.393066 
	C779.354248,691.035522 780.051147,685.338013 775.904541,680.477417 
	C776.369629,686.737061 776.878113,692.904602 775.182983,699.098633 
	C770.853455,714.919373 755.356140,725.654053 740.083374,722.869812 
	C735.530823,722.039856 731.149231,720.285461 726.677856,718.994385 
	C713.570129,715.209229 700.478027,711.572083 686.772095,710.269165 
	C669.383728,708.616089 653.481995,714.206238 637.626099,719.643799 
	C588.031067,736.651489 538.596008,754.124817 489.055267,771.291565 
	C418.124420,795.870361 347.154144,820.335327 276.203278,844.856384 
	C269.020508,847.338867 261.855499,849.872681 255.283447,852.172302 
	C253.350586,851.271423 255.767471,849.904480 253.870148,849.473083 
	C233.163788,857.296448 214.037567,867.745667 197.689011,883.981628 
	C200.142242,884.492493 201.586349,882.596008 203.650162,884.309875 
	C197.832657,889.796814 194.232895,896.342651 193.147858,904.805359 
	C187.423599,901.224792 182.268173,898.668518 176.769089,896.806152 
	C181.966568,900.058105 186.529572,903.842407 189.870407,909.013916 
	C166.338898,890.909180 139.330292,893.382202 112.481911,895.479431 
	C111.673729,893.744324 112.890266,892.437988 113.535507,890.621033 
	C117.219322,885.079468 122.828865,882.389709 128.787704,880.096802 
	C132.013565,878.855408 135.377319,877.573669 136.896362,873.960205 
	C132.533920,876.671509 128.178070,879.322937 123.314514,880.973450 
	C118.260750,882.688416 114.942978,886.131409 112.500221,891.452393 
M761.356995,801.550476 
	C766.658081,806.387085 771.616028,811.411682 774.460205,818.264282 
	C777.278015,825.053528 776.085205,832.050964 775.436646,839.377014 
	C777.882446,838.683228 778.237549,837.404602 778.547180,836.127197 
	C781.420959,824.271240 772.156311,805.786804 760.447510,800.588684 
	C757.952393,798.935608 755.559692,797.009399 752.536621,796.453003 
	C743.152588,794.725525 733.945923,795.448364 725.141479,799.202026 
	C699.874023,809.974426 674.452820,811.614502 648.353333,801.906250 
	C620.424744,791.517639 592.252075,781.786316 564.217590,771.680359 
	C560.592468,770.373596 557.138916,769.917297 553.584717,771.608887 
	C546.843384,774.817383 541.912903,779.719604 539.137634,786.752563 
	C537.491882,790.923157 538.207581,793.779297 542.813721,795.276611 
	C549.935730,797.591614 556.939514,800.287720 564.116089,802.407166 
	C566.550781,803.126099 569.290527,804.396179 573.356934,802.862915 
	C565.081543,797.242737 556.720947,794.228882 547.888733,790.076172 
	C550.457764,788.985840 551.731262,789.532043 552.913391,789.913147 
	C590.146851,801.918274 627.491699,813.655640 663.862061,828.101868 
	C684.117065,836.147034 704.327271,844.697937 721.259521,859.015320 
	C729.394409,865.894043 737.134583,873.238342 745.090149,880.330811 
	C748.169739,883.076233 751.639038,883.893860 755.020874,881.082825 
	C758.457825,878.226196 758.674622,874.550415 756.617004,870.716187 
	C755.593567,868.809204 754.365479,867.010742 753.368103,865.091370 
	C750.963196,860.463440 747.297119,856.512085 745.358093,850.596863 
	C749.410889,852.902405 750.965942,856.585266 754.487671,858.293274 
	C748.397827,849.644897 742.307983,840.996582 736.218140,832.348267 
	C742.102905,833.112732 746.895813,838.104736 752.681152,833.667358 
	C757.677002,829.835510 757.059509,823.365723 759.205566,818.013672 
	C762.445679,820.374146 760.268921,824.516296 763.466248,826.893921 
	C765.323730,816.750732 762.115601,808.521240 755.999329,801.142578 
	C758.128906,800.082153 759.561340,800.900757 761.356995,801.550476 
M157.525650,831.908386 
	C163.422150,839.276978 169.412582,833.570007 175.882935,832.373352 
	C168.520721,842.716919 161.158508,853.060425 153.796295,863.403992 
	C159.087860,859.656921 161.645981,853.502197 167.195999,848.930847 
	C167.418030,851.867371 166.117828,853.059265 165.303467,854.421936 
	C162.056244,859.855042 158.697189,865.222656 155.522568,870.697388 
	C153.357620,874.430969 153.448303,878.157776 156.933014,881.061829 
	C160.311096,883.877075 163.755020,883.057983 166.886887,880.384216 
	C169.420609,878.221130 171.983337,876.079590 174.375580,873.765625 
	C181.446762,866.925354 188.571579,860.148193 196.601028,854.420349 
	C213.289474,842.515564 231.910202,834.235901 250.853531,826.927307 
	C286.587402,813.140930 323.048065,801.382629 359.549896,789.793823 
	C360.743317,789.414917 362.192200,788.189148 363.982666,790.005981 
	C356.017578,794.690186 346.652344,796.471924 338.923706,802.799622 
	C346.863525,804.577148 417.991333,778.630066 423.559143,772.294128 
	C419.603302,770.353271 415.593201,773.796143 411.543640,772.202332 
	C418.715759,767.032776 632.194031,692.196716 638.130981,692.786133 
	C633.805420,697.162476 626.688293,697.838989 623.640747,704.460205 
	C629.393188,705.761536 634.015686,703.800049 638.610291,702.161133 
	C663.235413,693.377747 687.805115,684.438049 712.463318,675.749207 
	C716.745911,674.240173 721.079285,672.509460 726.012207,672.079773 
	C725.718079,674.436279 723.972534,675.017090 722.767761,675.994141 
	C718.548645,679.416077 715.207275,683.482849 713.168213,688.562256 
	C709.490356,697.724182 717.761658,709.135498 728.112610,708.741272 
	C724.796387,704.253296 719.024292,701.939941 717.368225,696.101074 
	C719.209961,695.717957 720.274963,696.688049 721.385132,697.281128 
	C729.958923,701.861938 739.145508,702.721863 748.582947,701.667786 
	C753.369568,701.133118 757.651794,699.389282 759.997681,694.688232 
	C764.273865,686.119080 757.616272,675.120361 747.616638,674.336914 
	C745.217651,674.148926 742.791382,674.308899 740.455261,674.308899 
	C740.173828,671.868958 741.562073,670.930481 742.312134,669.704468 
	C746.481323,662.889587 751.048767,656.290222 753.571533,648.598450 
	C754.473145,645.849487 755.328918,643.081055 752.625610,640.786255 
	C750.006775,638.563110 747.107117,638.820496 744.163391,639.989380 
	C740.115051,641.596680 736.392944,643.816162 732.813232,646.265442 
	C723.494385,652.641541 713.345398,657.122314 702.359497,659.700073 
	C700.210388,660.204346 698.040405,660.977234 695.182495,660.161133 
	C699.098389,656.014648 704.909241,655.082764 707.454590,650.083862 
	C692.393372,655.950806 678.685425,665.250244 662.004150,666.574280 
	C674.676086,660.258362 687.381226,654.178406 697.551819,644.132446 
	C684.827515,652.577698 671.122742,659.039673 656.810608,664.098877 
	C618.041748,677.803223 579.130798,691.105652 540.356445,704.794739 
	C451.819519,736.052246 362.698792,765.641968 274.524994,797.938599 
	C261.890900,802.566345 249.261459,807.472839 235.583405,808.311523 
	C218.605377,809.352600 202.564545,805.637085 186.917908,799.271851 
	C176.481842,795.026428 165.550659,793.555542 154.854614,798.120667 
	C142.504135,803.391907 135.956970,813.583130 133.614655,826.444824 
	C132.863388,830.570007 132.022720,835.187866 135.930359,838.956055 
	C135.314789,831.136597 134.830261,823.383179 138.512253,816.229248 
	C142.203690,809.056946 146.955276,802.951416 156.653244,799.915222 
	C150.316483,809.295410 145.629166,817.733276 149.263214,828.547852 
	C151.232498,824.635315 149.680435,820.354431 152.738403,816.893677 
	C154.917175,821.709045 153.877716,827.196472 157.525650,831.908386 
M347.550415,716.839355 
	C364.389557,722.656494 381.224579,728.485596 398.070709,734.282410 
	C402.322296,735.745361 406.576324,737.220276 410.895325,738.459351 
	C412.792267,739.003601 415.311951,739.337463 416.174530,737.040405 
	C417.156433,734.425659 414.609863,733.776855 412.810303,733.045776 
	C408.026794,731.102661 403.174988,729.324524 398.417725,727.320801 
	C394.864197,725.824158 390.934784,725.018677 387.402008,722.126160 
	C389.770569,721.265198 391.287781,722.044800 392.835083,722.516296 
	C403.981262,725.912537 415.138458,729.273132 426.269348,732.718750 
	C430.832275,734.131287 434.554962,733.161804 437.802246,729.669250 
	C436.427002,728.221069 230.634537,654.254639 228.449432,654.421448 
	C235.323212,659.474182 242.997223,662.219727 249.751587,666.727478 
	C233.090088,665.152039 219.314270,655.686768 204.203232,649.792664 
	C207.303329,654.861755 213.000641,656.490906 217.212387,659.978760 
	C216.175201,661.190918 215.379745,660.861450 214.570770,660.722534 
	C201.726837,658.517151 190.030609,653.534912 179.219162,646.315552 
	C175.345306,643.728760 171.450821,641.092407 166.956757,639.656067 
	C164.095337,638.741516 161.404617,638.993591 159.120514,641.333252 
	C157.001526,643.503723 157.519714,645.786194 158.331665,648.278809 
	C160.734726,655.656067 164.939911,662.064392 168.948090,668.596191 
	C169.920181,670.180298 171.805634,671.509644 170.958099,674.322388 
	C168.732864,674.322388 166.409821,674.140503 164.124207,674.355957 
	C156.773865,675.048645 150.585068,681.854126 150.410660,689.260803 
	C150.254807,695.879150 155.429474,700.853149 163.530472,701.711304 
	C169.696671,702.364502 175.811035,702.090393 181.898895,700.686829 
	C186.074936,699.724060 189.730652,697.389343 194.538483,695.942200 
	C192.141464,703.246521 185.526535,705.577087 181.456589,710.322876 
	C189.165924,708.971802 195.640244,705.557861 199.110962,698.317749 
	C202.275986,691.715332 198.331985,686.378235 194.576431,681.471130 
	C192.108154,678.246094 188.934326,675.561096 185.901047,672.454529 
	C187.677643,671.727417 189.074829,672.481079 190.414536,672.924194 
	C198.471893,675.589050 206.544922,678.215881 214.535065,681.072754 
	C234.292252,688.136658 254.000824,695.336609 273.747894,702.429077 
	C276.247955,703.326965 278.824768,704.129272 281.434570,704.564941 
	C283.403046,704.893555 286.205444,706.188171 287.192017,703.503418 
	C288.031494,701.218933 285.392059,700.230591 283.795044,699.174072 
	C281.435974,697.613342 278.912750,696.302673 276.519775,694.790100 
	C275.664276,694.249329 274.207611,694.004395 274.706696,692.175903 
	C276.269379,692.323181 277.822571,692.469543 280.359314,692.708557 
	C275.876740,689.238098 270.614075,688.798523 267.988129,684.363281 
	C276.421661,685.043213 284.273468,687.127197 291.953247,692.600464 
	C289.459198,693.368774 287.944763,693.835327 284.918671,694.767517 
	C306.123077,703.307556 326.741821,709.183594 347.550415,716.839355 
M788.802368,596.610779 
	C787.884644,590.019592 782.912354,586.268677 778.242188,582.628479 
	C779.317322,580.983826 781.392456,581.889221 781.592224,580.038635 
	C765.526550,571.922791 736.959900,572.428955 730.878845,582.578491 
	C733.351929,581.512817 735.718872,580.262573 738.230835,579.474915 
	C740.763611,578.680786 743.095520,576.633789 746.915833,577.775085 
	C742.824829,580.546753 739.136292,582.662659 735.888245,585.317566 
	C725.796265,593.566467 725.716675,604.020630 735.568359,612.439026 
	C737.837097,614.377686 740.365662,616.014893 742.798767,617.757385 
	C743.870361,618.524780 745.694824,619.051514 745.602234,620.373596 
	C745.342285,624.086487 748.187195,623.736023 750.247131,624.252197 
	C762.346985,627.283997 774.688416,626.774780 787.003723,626.656616 
	C787.997803,626.647156 789.348145,625.812988 790.000854,627.513489 
	C789.429443,627.987549 788.865906,628.455078 788.521606,628.740723 
	C792.021667,630.493286 795.906006,624.651001 799.493164,629.383240 
	C807.795898,617.422913 806.479675,604.852844 801.384888,592.295898 
	C799.729248,588.215454 796.668579,584.851990 790.129883,584.758362 
	C796.847412,588.898010 800.216736,593.983215 801.474121,600.522522 
	C802.515442,605.938354 802.967957,611.321106 802.458252,616.856873 
	C802.134216,620.375732 800.523926,621.785095 797.248474,622.298584 
	C789.167847,623.565063 781.017761,623.764954 772.880432,623.939880 
	C769.611267,624.010132 766.143738,624.055725 761.863525,621.869019 
	C775.633423,617.703247 781.350281,608.819031 779.921509,595.060425 
	C785.073486,597.272827 784.834229,602.227173 787.694641,604.886414 
	C789.666260,601.454285 789.666260,601.454285 788.802368,596.610779 
M169.336014,617.670288 
	C171.218948,616.299683 173.149429,614.989380 174.977081,613.548584 
	C186.665619,604.334290 186.619141,593.307129 174.777115,584.245483 
	C171.932022,582.068359 168.811615,580.251099 166.152222,578.489807 
	C165.697067,576.972046 168.186523,577.271973 167.122086,575.834229 
	C157.666580,573.089905 131.926468,576.327881 130.553329,580.419678 
	C131.165054,581.607300 133.352783,580.796021 133.423721,582.669556 
	C122.682945,592.760132 119.767509,599.856506 124.767532,603.894958 
	C127.382866,601.473267 126.982460,596.528442 132.183746,595.225220 
	C130.492477,608.978516 136.718552,617.653259 149.356308,622.401184 
	C137.530579,624.864075 126.505989,623.473511 115.453224,622.413086 
	C110.864738,621.972839 109.052505,619.697083 109.022118,615.287842 
	C108.938438,603.144653 109.889313,591.467407 122.896912,583.972107 
	C118.744926,583.818359 116.592812,585.211121 114.645485,587.039673 
	C106.659981,594.538086 103.890320,614.516357 110.171837,625.377075 
	C110.898720,626.633911 112.028038,626.745544 113.328545,627.183899 
	C122.054123,630.125061 130.499420,625.379517 139.196609,626.602478 
	C145.452423,627.482178 151.800552,626.284790 158.008194,625.036987 
	C161.612823,624.312378 166.036621,624.745300 166.737473,619.354675 
	C166.806427,618.824402 168.053131,618.447144 169.336014,617.670288 
M302.208130,729.391174 
	C286.346527,724.433777 270.857056,718.341736 254.828690,713.889404 
	C246.172394,711.484863 237.529633,709.093933 227.435577,710.652954 
	C234.803406,711.685608 241.293259,712.185974 247.590988,713.564270 
	C260.120300,716.306519 272.142242,720.939758 284.028107,725.542969 
	C309.611725,735.451050 335.624237,744.083862 361.513245,753.090881 
	C363.224304,753.686218 364.999054,755.044373 367.287750,753.243774 
	C346.312042,744.093445 324.380188,737.543579 302.208130,729.391174 
M216.689987,711.279480 
	C204.433899,712.963257 192.654388,716.476257 180.925613,720.299072 
	C174.459625,722.406555 167.767502,724.580383 160.869843,722.867126 
	C147.764832,719.611816 140.605530,710.394409 136.691742,698.006042 
	C135.267899,693.499207 136.049988,688.739807 134.933319,683.567871 
	C133.111267,687.931152 132.854996,691.876892 133.852631,696.352844 
	C138.459488,717.021851 155.957794,728.480347 177.537582,724.152405 
	C192.936172,721.064026 206.637238,711.699951 222.991653,711.769043 
	C221.115082,710.598694 219.311234,711.211487 216.689987,711.279480 
M203.272324,632.124695 
	C200.367004,628.295776 198.196671,623.972351 195.522598,618.562317 
	C194.288193,625.535645 200.592163,635.001770 208.065262,638.397644 
	C206.234848,635.995178 204.972778,634.338623 203.272324,632.124695 
M708.939148,635.288757 
	C711.736755,631.317078 716.187195,628.217773 716.058289,621.115967 
	C713.156738,625.674805 710.913208,629.043884 708.868225,632.529480 
	C708.395203,633.335876 706.671326,634.365112 708.939148,635.288757 
M781.556946,642.806152 
	C781.940002,642.445862 783.074219,642.452942 782.209106,641.492920 
	C782.134460,641.410034 781.862427,641.423828 781.727661,641.488098 
	C776.273743,644.092102 772.402283,648.493469 768.567566,652.944519 
	C772.819458,649.759033 776.509338,645.891785 781.556946,642.806152 
z"/>
<path fill="#000000" opacity="1.000000" stroke="none" 
	d="
M686.416748,512.714844 
	C687.256958,516.832581 686.957397,520.547729 685.509460,523.931091 
	C682.169800,531.734680 678.544128,539.417786 674.934692,547.102905 
	C673.540894,550.070557 671.054382,551.992676 668.185120,553.540649 
	C652.126526,562.204346 634.915894,568.015259 617.687317,573.704224 
	C611.632080,575.703735 605.476624,574.441833 599.854431,571.312500 
	C598.550171,570.586548 597.342041,569.675232 596.138306,568.783508 
	C582.674561,558.809082 586.467957,559.517517 574.947998,570.732056 
	C567.987915,577.507629 564.297546,585.448486 564.977051,595.311707 
	C565.297363,599.961243 565.059204,604.648621 565.362183,609.300110 
	C566.202515,622.200256 559.021057,631.015442 550.099854,638.654663 
	C543.899780,643.963867 538.328979,649.878174 533.092712,655.996399 
	C528.791016,661.022583 524.226318,664.905029 517.865356,666.620544 
	C515.460022,667.269226 513.273315,668.603455 511.003601,669.377930 
	C502.925995,672.134399 496.426208,677.175476 489.401581,681.742249 
	C482.437592,686.269714 473.498932,687.790161 465.374268,690.471619 
	C464.031281,690.914917 462.351959,690.837830 460.947510,690.501770 
	C456.833527,689.517517 452.793121,689.298096 448.705688,690.569153 
	C446.908936,691.127869 444.933655,691.161865 443.288330,690.411011 
	C436.064423,687.114258 428.439301,685.033081 420.899139,682.683289 
	C420.431488,682.537598 419.893188,682.317261 419.599670,681.958313 
	C413.781860,674.843384 405.216431,672.416931 397.359283,668.734131 
	C395.215515,667.729309 393.025146,667.054443 390.793793,666.438721 
	C386.509308,665.256409 382.613403,663.312561 379.832336,659.844116 
	C376.282715,655.417175 371.896027,651.754395 368.342407,647.455078 
	C364.122803,642.349976 359.103424,638.320312 354.033661,634.349548 
	C345.476288,627.647339 342.906525,618.844910 344.131958,608.637634 
	C344.892334,602.304077 344.826721,595.987061 344.529785,589.681885 
	C344.209473,582.880615 340.743469,577.427307 336.128845,572.571289 
	C323.449432,559.228943 326.453186,559.135681 312.343842,569.929016 
	C304.635834,575.825439 296.718597,576.765076 287.170197,572.665283 
	C272.666138,566.437744 257.476471,561.850220 243.353485,554.569275 
	C238.466141,552.049683 234.963867,548.798157 232.900528,543.761841 
	C231.323517,539.912598 229.811676,535.976013 227.696396,532.419922 
	C222.192551,523.167053 221.482132,513.582214 225.119568,503.634766 
	C226.824814,498.971344 226.615494,494.643921 224.532578,490.159027 
	C222.853119,486.542847 221.773163,482.652191 220.174149,478.993927 
	C213.978958,464.820496 214.501099,450.661835 221.124405,436.978149 
	C224.460739,430.085327 224.290558,423.950500 221.702393,416.999390 
	C215.071823,399.191559 213.314331,381.101837 220.423599,362.899567 
	C221.672089,359.702972 220.845062,356.715790 219.891449,353.661041 
	C212.077469,328.630249 208.815247,302.972412 209.754135,276.806274 
	C210.490906,256.272888 213.342651,236.022079 220.064026,216.527893 
	C228.753067,191.326904 244.725235,170.887833 263.801239,152.893280 
	C304.568451,114.437241 353.097534,89.895241 406.867798,75.493767 
	C421.266846,71.637222 436.164978,68.768684 451.158386,68.830139 
	C480.585999,68.950745 509.001312,75.205048 536.305725,85.950455 
	C566.792358,97.948158 595.905884,112.781784 622.149109,132.540756 
	C645.349915,150.009109 665.408447,170.640686 680.197937,195.902924 
	C689.944336,212.550766 694.447449,230.950287 697.312195,249.819809 
	C702.644348,284.942322 700.163635,319.508942 689.661255,353.453339 
	C688.423035,357.455231 688.329041,361.080139 689.830200,365.072632 
	C696.460999,382.707489 694.021484,400.174438 687.814697,417.272491 
	C685.400574,423.922577 684.928467,429.708130 688.159729,436.350952 
	C695.132385,450.685120 696.013062,465.581573 688.828613,480.168793 
	C683.648193,490.687012 682.149780,501.198578 686.416748,512.714844 
M551.842163,143.032166 
	C557.108887,143.118652 560.453918,147.453796 565.056213,149.008240 
	C566.590515,149.526459 567.865540,151.356155 570.764343,149.707901 
	C557.145691,138.585800 541.770752,130.960312 528.698181,120.088669 
	C534.517212,120.480263 538.896606,125.050385 544.881836,124.926720 
	C533.955872,114.980499 520.528931,108.828125 507.055939,100.440384 
	C512.614075,99.672729 515.633057,102.385567 519.034790,103.687393 
	C534.755981,109.703773 550.385864,115.942642 564.858826,124.684044 
	C567.136658,126.059792 570.865540,127.300186 571.245605,129.152557 
	C572.768433,136.575241 579.832275,136.319824 584.215210,139.646698 
	C586.903564,141.687302 590.603943,142.347366 592.427002,145.177094 
	C592.254089,146.853577 590.315918,145.868240 590.329895,147.522675 
	C595.740540,152.092407 603.075684,154.093155 607.614685,158.394394 
	C608.078979,161.203812 605.916260,159.415161 605.889221,161.000305 
	C610.026489,163.972122 614.917603,166.019852 618.318909,169.742783 
	C617.346191,171.382507 615.924927,169.639526 615.513733,171.211823 
	C619.479858,174.229919 623.415405,177.224747 626.723267,179.741928 
	C627.356506,182.118179 624.908813,180.787079 625.208679,182.374023 
	C628.094421,185.807098 632.758667,187.400665 635.308716,190.972794 
	C634.049194,193.043320 632.499939,191.193283 631.472961,192.211166 
	C635.248840,196.800461 640.835999,199.680069 643.392822,205.143127 
	C642.287781,206.620911 640.922119,204.506271 639.797180,205.749390 
	C641.990051,208.392181 644.039368,210.802307 646.016113,213.270599 
	C646.935913,214.419220 648.821533,215.973495 648.059753,216.995224 
	C646.006409,219.749512 648.356384,221.158417 649.183777,223.083389 
	C649.811157,224.542999 651.139771,225.807358 650.617065,227.658249 
	C649.817993,227.781113 649.078735,227.894791 648.229309,228.025391 
	C649.660339,231.104614 652.268799,233.505508 652.407349,236.550034 
	C651.666565,238.363724 649.850220,236.040222 649.539551,237.789261 
	C649.951172,240.568741 652.406738,242.523911 651.938721,245.179733 
	C650.972656,246.471619 649.577698,244.416382 648.835205,245.901962 
	C651.703796,254.738281 651.703796,254.738281 648.062134,255.387054 
	C647.920105,257.751617 649.695862,260.026764 648.894104,262.075867 
	C647.299011,263.131348 646.646606,260.677704 645.253906,262.180176 
	C648.850464,267.693726 641.975342,272.009277 644.098389,276.843964 
	C642.348816,277.977753 642.045959,276.022339 640.882263,276.592773 
	C640.989014,279.548737 643.539734,283.844391 641.740356,285.076385 
	C638.107056,287.564056 640.699219,289.792389 640.673401,292.050629 
	C640.653625,293.775848 641.877136,295.524719 641.335571,296.242645 
	C639.395447,297.935669 639.206482,295.611542 637.520874,296.875092 
	C640.755615,299.911926 637.833069,304.228027 639.184143,307.183624 
	C641.603882,312.477295 638.894470,319.068420 643.785828,323.489166 
	C643.930420,323.619873 643.781921,324.127289 643.704651,324.443054 
	C642.736450,328.403656 645.354614,330.191193 648.970764,333.019531 
	C648.198181,329.545105 647.742004,327.317535 647.205627,325.109406 
	C643.023438,307.891266 643.297546,291.029755 649.425293,274.099854 
	C653.311157,263.363525 657.425049,252.429092 657.620239,240.767746 
	C657.918091,222.972427 651.541199,207.242462 641.821899,192.656891 
	C630.183472,175.191162 614.441345,161.326004 600.744141,145.667282 
	C599.637512,144.402191 597.630737,143.632263 597.893982,141.225845 
	C599.233459,140.946884 600.173096,141.631256 601.064819,142.317825 
	C610.715332,149.748489 619.712036,157.930557 628.533508,166.310272 
	C630.207153,167.900131 631.307251,170.048309 633.472961,171.174225 
	C638.294373,173.680847 641.983093,177.720108 645.356689,181.680176 
	C648.884521,185.821320 652.376709,190.286972 655.811218,194.389084 
	C658.522949,197.627975 660.369263,200.776474 661.916260,204.441101 
	C662.160889,205.020401 662.681641,205.987640 662.995361,205.957230 
	C667.362488,205.533859 666.253174,209.370209 667.156555,211.437012 
	C667.984497,213.331161 668.414185,215.128754 669.883179,216.950836 
	C672.346680,220.006378 674.729492,223.985870 674.994202,227.728729 
	C675.296509,232.003952 680.276550,235.262390 677.373596,239.958679 
	C677.317505,240.049438 677.422974,240.372681 677.514465,240.403183 
	C682.756226,242.150284 678.692444,245.420013 678.753479,248.004410 
	C678.764099,248.457031 678.634521,248.912949 678.568665,249.374771 
	C679.728027,249.543106 680.301392,247.974442 681.682007,248.866623 
	C681.682007,256.657501 681.682007,264.606628 681.682007,272.524841 
	C682.825500,272.620667 683.218140,271.192139 684.349976,272.076660 
	C684.700378,275.732361 682.642273,278.927521 682.767395,282.436005 
	C681.919189,288.503174 683.949524,294.675995 680.997253,300.703217 
	C681.900391,301.702637 683.367249,299.537018 684.077698,301.511322 
	C683.836426,304.717529 683.083069,308.341339 682.630493,311.492004 
	C681.941101,316.290802 682.717468,321.639343 680.331970,326.273743 
	C679.371948,328.138794 679.441162,329.759552 682.225647,329.751617 
	C683.173340,328.007202 683.511841,326.242981 683.774841,324.415131 
	C687.305786,299.880280 687.861450,275.276581 684.533325,250.717300 
	C681.939270,231.574615 676.531006,213.236740 665.523193,197.020660 
	C651.913208,176.971191 635.104553,160.074417 615.430725,145.882187 
	C578.419067,119.182907 539.461487,96.813248 494.285675,86.580101 
	C473.858795,81.953033 453.314117,79.369019 432.913422,83.080620 
	C401.755493,88.749352 371.289581,97.070000 343.769318,113.972519 
	C313.797089,132.381042 283.610504,150.167633 259.661011,176.815994 
	C242.204132,196.240128 230.650085,218.052261 226.211609,243.735718 
	C222.094742,267.558258 222.183563,291.483643 224.631256,315.415009 
	C225.139084,320.380035 225.039810,325.658051 227.319412,330.370850 
	C230.274460,329.255402 229.914658,327.240448 228.842178,325.414215 
	C226.328903,321.134674 229.200897,315.874268 225.991821,311.623199 
	C224.556122,309.721313 227.696167,310.152313 228.292343,309.175385 
	C227.270493,306.140198 225.100784,303.621521 224.985046,300.200806 
	C226.083633,300.091553 226.946915,300.005707 227.878113,299.913116 
	C225.532822,294.636536 228.814560,288.647217 225.150177,283.789551 
	C224.910477,283.471802 224.957718,282.452423 225.106079,282.397919 
	C229.074310,280.939758 226.034851,278.628967 225.834351,276.685913 
	C225.684372,275.232513 224.615021,273.898621 225.031494,272.856476 
	C225.835754,271.221954 227.171967,273.491516 227.633881,271.843231 
	C225.505569,267.109070 230.038681,261.912872 226.008698,257.852692 
	C227.513824,256.336884 228.236801,258.265015 229.286621,257.517059 
	C229.004211,254.300415 227.046814,251.355896 227.310745,248.159210 
	C228.549591,246.929367 229.401505,249.399155 230.549835,248.174667 
	C230.360077,245.750870 229.012115,243.438873 229.652222,241.117035 
	C230.756729,239.724976 231.577515,242.843628 232.663055,240.936081 
	C232.054077,238.336334 230.984940,235.670929 231.977173,233.083542 
	C233.161911,232.664291 233.541245,234.406982 234.538574,233.344223 
	C235.164627,230.247635 231.320358,225.662079 237.571671,223.640381 
	C237.924393,220.847946 237.213486,217.583099 241.243439,214.778275 
	C243.511856,213.199448 243.934586,208.542480 246.451630,205.267944 
	C249.462128,201.351440 252.279343,196.690063 255.046204,192.258621 
	C258.289978,187.063339 262.828186,183.119492 266.754089,178.644760 
	C270.804565,174.028076 276.292786,170.708710 280.786560,166.437347 
	C289.247528,158.395111 297.851593,150.534805 307.052948,143.345734 
	C308.497223,142.217331 309.875641,140.691345 312.713348,141.523788 
	C311.286926,143.144302 310.220032,144.368149 309.140594,145.580856 
	C296.521881,159.757629 282.201630,172.401123 271.017883,187.870758 
	C258.706268,204.900436 250.454010,223.254364 252.261230,244.940140 
	C253.101593,255.024109 256.516754,264.526550 259.918518,273.812653 
	C265.996063,290.403107 266.604492,306.886047 262.584412,323.854828 
	C261.909882,326.702057 260.597473,329.582825 261.150452,333.647247 
	C263.360107,330.605377 266.385040,328.722443 266.150513,325.923004 
	C265.719330,320.775879 268.281006,316.267731 269.283630,311.646729 
	C270.190552,307.466858 268.309601,303.269714 270.368134,299.441071 
	C270.510559,299.176117 270.178741,298.356750 269.860565,298.190002 
	C266.778778,296.574829 268.724182,294.067444 268.761871,291.955994 
	C268.785065,290.656555 269.907318,288.615784 269.417694,288.187988 
	C265.321777,284.609467 268.642334,280.523041 268.367432,276.642548 
	C267.071899,277.310883 264.637054,278.387146 265.233124,276.136749 
	C266.510040,271.315887 260.454712,267.739502 263.865173,263.282867 
	C257.279388,260.821350 262.543060,256.668365 261.940308,253.522507 
	C260.876190,253.772369 260.605316,255.601410 258.947052,254.906982 
	C257.313446,251.552582 260.556061,248.767624 260.366547,245.557358 
	C257.331635,245.148956 257.331635,245.148956 260.149353,236.633133 
	C259.062683,236.138107 258.413269,238.392548 257.107025,236.989334 
	C257.122620,233.617172 260.016449,231.245209 260.730103,228.033569 
	C259.883423,227.840622 259.007446,228.671951 258.274933,227.588486 
	C258.358246,225.586182 259.923126,224.163513 260.805969,222.435745 
	C261.481964,221.112808 263.194580,218.949677 262.969574,218.739288 
	C258.815979,214.855209 263.919861,213.655121 265.062195,211.486969 
	C266.046204,209.619308 267.650024,208.078217 268.848206,206.559555 
	C268.475189,204.764664 266.335724,206.722778 266.243774,204.691162 
	C268.675171,199.361389 274.552185,196.919800 277.885010,192.165146 
	C276.711609,191.293808 275.351685,192.843597 274.330139,191.179901 
	C276.736389,187.044006 281.785126,185.602448 284.803955,181.888092 
	C284.195251,180.987595 282.600311,181.830811 282.391846,179.987045 
	C286.634674,176.820374 291.072296,173.508301 295.759155,170.010223 
	C293.995789,169.762909 292.678436,171.595734 291.082977,169.820648 
	C293.062714,167.007996 296.420502,166.021423 298.909088,163.948929 
	C299.894836,163.128006 302.019043,162.587158 301.531219,161.327972 
	C300.174835,157.826569 303.024719,157.362762 304.778076,156.272064 
	C308.737366,153.809158 312.853851,151.600311 316.859772,149.210022 
	C317.830353,148.630905 318.620117,147.748795 319.390594,147.093185 
	C319.308960,145.717896 317.384155,146.303818 317.653687,144.495316 
	C322.510406,140.625000 328.584290,138.230560 334.134674,134.963593 
	C335.410461,134.212677 337.610382,133.280457 337.619232,132.413589 
	C337.675354,126.921867 342.396118,126.071060 345.663879,124.066994 
	C362.092316,113.991539 380.377380,107.964577 397.986969,100.465172 
	C398.965149,100.048592 400.091553,99.223648 401.339233,101.065598 
	C388.821045,108.858986 375.334991,115.171661 364.254089,125.181763 
	C370.062866,124.849014 374.585266,120.743866 380.330658,120.409943 
	C367.433105,131.129852 352.249725,138.612183 339.860596,149.958038 
	C346.470886,149.293762 351.006836,143.858978 358.922394,142.569763 
	C346.741547,153.488998 333.259552,160.582169 323.454987,171.972626 
	C330.913696,169.254349 337.101166,163.986115 345.146912,162.503296 
	C335.350830,170.843216 325.245270,178.714600 316.402344,187.999268 
	C321.882141,185.083496 327.361908,182.167725 332.841705,179.251953 
	C333.167206,179.754562 333.492706,180.257172 333.818176,180.759766 
	C323.126648,188.699478 313.780182,197.901917 305.301025,209.642181 
	C311.481537,206.541550 315.354248,202.031616 321.116699,200.541031 
	C313.551331,209.115433 305.282288,217.038452 301.236359,228.562866 
	C304.691742,226.803436 305.891418,222.978851 310.312805,221.718124 
	C304.281494,232.741623 300.535919,243.464188 300.816467,255.236053 
	C303.685577,250.063843 305.066559,244.164032 309.646484,239.861786 
	C308.316681,249.371948 305.057465,258.643158 306.690399,269.475555 
	C308.849579,264.851349 310.540100,261.230835 312.230621,257.610291 
	C313.026642,262.539917 312.562958,267.093781 312.368713,271.659119 
	C312.177673,276.149048 312.696594,280.550751 314.823761,285.184540 
	C317.126160,281.461090 316.972198,277.499023 320.023804,274.109924 
	C320.674896,281.661987 319.438843,288.678955 322.667542,295.317047 
	C326.078766,293.321686 324.209747,288.596497 327.493591,287.085388 
	C330.388916,291.491028 323.766541,299.280609 333.087311,300.913177 
	C333.786163,306.197632 335.265900,311.222168 339.415527,316.548218 
	C327.858887,315.047638 317.547211,312.059998 306.256775,313.673645 
	C310.050049,315.695404 314.131897,314.542603 317.615814,317.902496 
	C310.919739,318.756927 304.792572,318.419647 298.379517,320.709991 
	C302.511200,323.814026 307.569519,322.006439 311.770233,326.379303 
	C294.474182,324.825806 280.189148,329.470612 268.008240,339.845459 
	C255.802811,350.241180 249.832092,364.352631 244.834564,378.934204 
	C245.226013,379.163086 245.617462,379.391937 246.008911,379.620789 
	C248.034866,375.724823 250.060806,371.828857 252.086746,367.932892 
	C252.687317,368.088226 253.287903,368.243561 253.888474,368.398895 
	C245.995911,388.793640 248.440842,409.269775 251.708984,429.194946 
	C253.516556,430.911743 254.540054,427.986359 255.776276,429.591339 
	C258.214020,438.927216 261.085388,448.192749 260.912781,459.064758 
	C255.966644,454.194397 256.582001,448.061157 253.766891,443.293610 
	C251.067459,451.391907 253.681137,460.000732 250.675964,468.060974 
	C248.229416,463.461945 250.004120,456.557220 242.862915,455.039856 
	C238.372864,454.085846 234.625778,448.548584 229.284668,452.833221 
	C227.406464,464.000000 228.837982,470.680573 233.865875,473.583435 
	C235.888840,469.744415 233.608002,465.123047 236.013260,460.606873 
	C238.643433,466.062439 238.145981,471.602203 240.256241,476.463715 
	C242.303726,475.225769 240.914291,472.738525 243.023224,471.101776 
	C246.245056,480.603394 244.630981,490.521149 246.806198,500.341400 
	C249.550415,498.020447 248.292908,494.488647 251.151611,491.957947 
	C251.151611,499.033386 251.151611,505.470215 251.151611,512.455566 
	C253.731247,510.161835 253.273590,506.899109 255.936707,505.203400 
	C257.062378,510.556183 255.481720,515.856567 256.950897,521.398438 
	C260.019623,518.732788 259.265259,514.933655 261.820374,512.241943 
	C263.202606,518.000000 261.314697,523.694092 263.364410,529.953308 
	C266.571014,526.239380 266.419037,521.864685 269.189606,518.270691 
	C271.076965,522.278687 269.388763,526.312439 270.924744,529.769165 
	C274.503998,528.887634 272.648651,524.368164 275.644745,523.325623 
	C277.492798,526.326477 276.281006,530.164917 278.384216,533.112610 
	C281.195770,531.899475 279.840363,528.112915 282.635834,527.049744 
	C284.298737,530.289062 282.187988,534.113525 284.612640,537.201477 
	C288.033661,535.372437 286.648743,530.810608 289.652161,529.039001 
	C292.399536,532.749573 289.617218,537.255432 291.709839,541.426697 
	C294.958923,538.854248 294.083130,534.391235 296.948242,531.827332 
	C298.730927,535.016602 295.680176,538.949890 299.147919,541.320923 
	C302.430634,539.665588 301.860382,535.518921 304.655212,533.663391 
	C307.099487,535.411560 303.885376,538.841187 306.760712,540.326660 
	C309.187225,540.284302 309.085571,537.131531 311.394714,536.689697 
	C312.850067,537.283447 311.491180,539.728638 313.441772,540.177551 
	C315.772034,539.518555 315.951599,536.320312 318.606354,535.652893 
	C318.998383,536.297546 319.265472,537.375427 319.848938,537.588989 
	C322.894623,538.703674 323.126434,534.818542 325.336121,534.318542 
	C326.693970,534.658691 325.688354,536.662537 327.164764,536.910583 
	C335.320587,531.917542 342.953033,538.561768 350.999786,537.554749 
	C348.748932,540.375244 344.777527,539.118652 341.829376,542.574829 
	C352.056885,542.317993 361.124359,543.290771 369.031860,548.608887 
	C376.579651,553.685059 382.494263,560.335693 388.618866,568.265564 
	C383.078400,567.982117 381.326019,562.843201 376.696075,563.078064 
	C376.442810,566.264709 380.291473,567.797363 379.414825,571.069641 
	C376.260620,570.286011 375.412262,566.021973 370.377411,566.176147 
	C376.776184,573.611816 376.240997,583.137878 381.284027,590.963745 
	C384.047485,587.366211 381.267181,584.541016 382.575897,581.185486 
	C386.568573,585.801392 386.650238,591.418884 388.030884,596.232910 
	C391.509369,596.628540 393.255554,595.327759 393.269073,592.150574 
	C395.649567,592.981812 395.250275,595.881287 397.595001,596.641541 
	C398.546356,590.485168 396.606812,584.881104 395.778229,579.163513 
	C403.885498,588.688721 403.594055,599.820862 401.759064,611.370850 
	C405.513611,607.683838 410.713867,605.766785 410.340668,600.042847 
	C412.421021,599.878601 411.675964,602.023926 412.969238,602.197876 
	C414.512939,600.089600 412.729523,597.368835 414.099762,595.216431 
	C416.186249,596.063660 415.257721,598.801270 417.676270,599.689880 
	C417.083435,594.427612 416.522064,589.444336 415.960663,584.461060 
	C420.608612,591.165161 422.819366,598.370422 422.392731,606.390564 
	C422.284210,608.430481 420.984955,611.631165 424.210815,612.359741 
	C427.879639,613.188354 428.258881,609.835205 429.121338,607.361084 
	C429.187408,607.171631 429.662262,607.124634 429.949738,607.012573 
	C431.620453,608.167053 429.196289,610.735962 431.705383,611.804626 
	C434.140686,607.841919 434.189911,603.273010 435.049011,599.221497 
	C436.582642,598.079346 437.548950,600.785339 438.540100,599.695618 
	C441.245270,595.150085 437.865936,591.094055 438.266510,586.780884 
	C440.536194,587.545593 440.690582,589.380615 441.313690,590.847168 
	C444.592010,598.562988 443.355713,606.576294 442.697510,614.516052 
	C442.304443,619.256897 442.674286,623.652771 446.447235,627.979797 
	C447.197266,622.459106 444.526245,617.721313 446.066559,611.624695 
	C447.736633,615.723450 448.831024,618.754150 450.199738,621.655396 
	C451.227814,623.834595 451.797180,626.927551 454.796082,627.006226 
	C457.905853,627.087891 458.870514,624.035034 460.361450,621.866638 
	C461.842712,619.712341 461.509949,616.463074 464.545319,614.680420 
	C465.160095,619.700073 463.055115,623.960999 462.776459,629.200623 
	C467.649719,620.966309 466.851227,616.162720 466.035400,605.329041 
	C465.466492,597.774292 467.436951,589.617981 471.980713,586.079163 
	C470.994507,590.859924 469.116425,595.280945 470.912445,599.625549 
	C472.444061,600.583496 472.816284,597.969543 474.159088,599.032166 
	C476.275299,601.614685 473.930878,605.861389 476.974670,607.717224 
	C479.081787,608.109985 478.204956,605.656311 479.860870,605.765869 
	C480.154419,606.493225 480.477295,607.247742 480.765015,608.015381 
	C481.470764,609.898499 482.010895,612.112671 484.719543,611.585083 
	C487.473450,611.048706 486.886902,608.637207 487.047821,606.730835 
	C487.299957,603.744324 487.267242,600.713318 487.774445,597.773499 
	C488.554443,593.252686 489.861359,588.869080 492.843170,585.220032 
	C493.043915,589.967346 491.543060,594.441040 492.313599,599.409607 
	C493.870850,598.278870 493.620667,595.960022 495.124329,595.678955 
	C500.064575,600.805054 500.299988,609.289917 508.739380,612.474670 
	C508.473572,606.323853 506.038727,600.989380 506.766296,595.321472 
	C507.661194,588.350464 510.248566,582.271545 513.758728,580.316833 
	C513.218689,585.563904 510.534668,590.477844 511.830078,595.741089 
	C514.000244,595.822205 514.148804,593.608337 515.904968,593.224304 
	C516.319519,596.063721 519.579956,594.930847 520.689697,597.619934 
	C522.966309,592.427979 522.221130,586.814575 526.569031,582.709473 
	C526.728882,590.036377 526.728882,590.036377 530.476624,591.547180 
	C530.588440,582.740845 534.681580,575.075439 537.304382,566.869385 
	C533.758911,566.285461 533.339844,570.048889 530.718445,569.918945 
	C530.012695,567.057739 533.726868,565.539795 532.857849,562.393494 
	C528.474060,562.514587 526.755737,567.973633 521.555298,567.902405 
	C532.888306,552.083191 546.078796,540.962158 566.956299,542.554199 
	C564.467957,539.004150 560.898560,540.286133 558.000549,537.291809 
	C567.713928,536.927612 576.158142,534.279480 585.879517,535.923401 
	C586.908813,537.308899 588.696899,540.208191 591.394958,536.399597 
	C593.819275,537.282043 593.968201,540.511536 596.424805,540.188232 
	C598.721985,538.909302 596.372192,536.688843 597.665466,535.272278 
	C600.365540,536.879944 600.297913,540.569275 603.424255,541.674927 
	C604.605896,538.813538 602.772949,535.651672 604.641785,532.709473 
	C607.415649,535.302917 606.950256,539.533264 610.445740,541.172180 
	C613.210815,538.607361 610.255737,534.560974 613.015625,531.824585 
	C615.229309,534.449585 614.368896,538.353333 617.498718,540.406860 
	C620.013000,536.808838 617.402832,532.403687 619.699158,528.765869 
	C622.555664,531.010620 621.613281,535.072449 624.836548,537.259460 
	C626.599304,534.090820 624.903259,530.101440 627.593872,527.401550 
	C629.261841,529.762085 628.849426,532.917969 631.555786,534.549561 
	C633.914856,531.050354 631.133545,526.258667 634.293823,523.008911 
	C636.562378,524.647522 635.375854,527.845154 638.533691,529.393127 
	C639.019897,525.467224 639.470276,521.830688 640.045349,517.187439 
	C643.248352,521.196716 642.349731,526.056885 645.950867,529.266907 
	C648.108826,524.042603 645.715149,518.681641 647.744263,513.742920 
	C650.662781,515.372742 649.291809,519.484436 652.641174,520.678528 
	C654.755127,515.938965 651.393372,510.775238 654.152161,505.707489 
	C655.397461,507.964966 656.351562,509.694672 657.654663,512.056885 
	C659.467773,505.901917 656.376099,500.145782 659.045227,494.571655 
	C661.269226,496.756134 660.190979,500.063873 663.222290,502.348572 
	C664.430176,492.147827 663.286011,482.319946 666.233704,473.057373 
	C668.550598,473.595581 667.453491,476.086517 669.359314,476.553375 
	C671.437378,471.931183 670.376160,466.409821 673.579895,461.453125 
	C675.068909,465.555267 673.757263,469.687012 676.142151,472.928955 
	C682.591858,468.580444 682.896912,448.864807 676.589600,441.438019 
	C677.340454,445.160248 678.918335,448.506317 678.414856,452.374603 
	C676.215881,451.084473 665.974060,453.433716 664.593262,454.359680 
	C659.247925,457.944275 660.986267,464.014343 659.677490,469.091888 
	C658.806702,468.649902 658.373657,468.574554 658.281128,468.355408 
	C658.028076,467.756042 657.822388,467.104462 657.766174,466.458893 
	C656.622620,453.332214 656.142700,440.263550 658.239807,427.118744 
	C660.574768,412.482697 662.233826,397.715790 659.606750,382.905670 
	C658.732605,377.977295 657.313904,373.145508 655.992859,367.638977 
	C658.852295,369.044067 658.940002,371.312744 660.016052,372.900604 
	C661.187012,374.628693 662.181213,376.476624 663.252441,378.272278 
	C654.029602,346.080841 635.349548,325.166321 598.989746,325.332733 
	C602.873230,322.476837 607.601990,323.300659 611.914612,320.966614 
	C604.023499,318.000366 596.271545,318.992554 587.867981,317.613220 
	C592.436401,313.832947 597.643250,314.479065 602.319885,311.328247 
	C591.328369,311.245087 581.906799,314.742584 570.758972,316.087708 
	C574.872009,310.600098 575.359314,305.271912 576.633301,299.625092 
	C579.647705,302.517365 580.855103,300.882812 581.163696,298.238464 
	C581.591614,294.571625 581.675171,290.864594 581.921692,286.926666 
	C584.943054,288.752777 583.338440,292.751862 586.821716,294.462585 
	C589.908325,287.963928 589.253967,281.129974 589.136780,273.072998 
	C592.154724,277.259705 592.517761,281.169830 594.493896,285.360046 
	C598.373352,275.795807 596.488831,266.769867 595.993774,256.420105 
	C599.613647,260.572815 600.133362,264.868134 602.607422,268.555603 
	C604.277405,258.322174 601.076355,249.143723 599.931580,239.722687 
	C604.342773,244.376877 606.210510,250.181946 608.667053,256.808868 
	C609.431396,243.445496 604.722900,232.535767 599.035400,221.307343 
	C602.587036,222.157043 603.306519,225.764084 607.232788,225.676559 
	C602.351501,215.980209 595.550720,208.353928 588.669128,200.716278 
	C593.857361,201.830032 597.093567,206.244827 602.770081,207.857819 
	C594.900513,197.079376 585.967407,188.480881 576.427795,180.374084 
	C581.971741,180.846024 585.595398,185.038528 591.458801,186.503983 
	C583.104126,177.168640 573.354553,170.680817 564.870667,162.722366 
	C572.322083,163.644623 577.643616,169.236786 585.443848,171.636536 
	C580.951599,165.663788 575.755188,162.067551 570.740540,158.251480 
	C564.391968,153.420334 558.120605,148.487747 551.842163,143.032166 
M444.389404,673.848694 
	C447.815216,675.032349 450.060059,673.715881 450.664490,670.309387 
	C452.210876,661.594360 451.306519,653.264343 446.568512,645.489075 
	C444.688538,642.403992 442.748901,641.949036 439.632050,643.523682 
	C433.694824,646.523010 432.217163,654.045532 436.915588,659.002502 
	C437.959534,660.103882 438.350372,661.205994 438.309204,662.538147 
	C438.164795,667.214050 440.275940,670.766174 444.389404,673.848694 
M469.622375,668.846924 
	C471.531006,665.513367 469.705017,661.085510 472.802856,658.089294 
	C476.246948,654.758240 475.307159,650.449829 474.210175,646.878052 
	C472.615143,641.684387 466.295135,641.245972 463.015228,645.526978 
	C457.748932,652.400635 457.226990,660.206665 458.557709,668.274170 
	C458.905457,670.382507 459.290924,673.433838 461.941406,673.875916 
	C464.151489,674.244385 466.335144,672.838745 467.893494,670.967590 
	C468.318115,670.457764 468.764832,669.966370 469.622375,668.846924 
M426.377289,659.844238 
	C426.607422,661.000549 425.999298,662.631653 428.673126,662.903870 
	C429.202087,654.728210 431.839264,646.625671 426.729889,638.905701 
	C425.562317,637.141479 424.862823,634.344604 422.259766,635.095093 
	C420.023560,635.739807 417.963867,637.318237 417.184540,640.051758 
	C414.952759,647.879700 417.822754,654.260742 422.572296,660.961121 
	C423.184052,657.197632 423.675232,654.175781 424.284088,650.429993 
	C426.957184,653.439270 426.017365,656.383240 426.377289,659.844238 
M485.044556,635.803467 
	C477.736847,643.603027 480.576996,652.925781 480.350677,663.229431 
	C484.203400,659.030579 481.834564,654.147156 485.011536,650.883118 
	C487.404785,654.516907 485.043274,658.731445 487.365753,662.575989 
	C491.672241,655.477478 494.057983,648.401917 492.346375,640.643738 
	C491.683960,637.641052 490.112762,634.169922 485.044556,635.803467 
M400.558136,643.469910 
	C404.172882,641.477600 401.279388,637.208496 403.697693,634.385376 
	C406.669189,641.351074 405.148712,648.793152 407.383911,655.706177 
	C407.468048,652.091370 411.487091,650.880676 411.746521,647.449219 
	C412.103546,642.726868 411.047882,638.680115 407.860504,635.084290 
	C406.235657,633.251282 405.512115,630.189880 403.587555,629.143738 
	C399.877625,627.127075 400.381866,632.149475 398.260132,633.459351 
	C394.417511,635.831543 395.807495,641.553894 400.558136,643.469910 
M512.924255,639.779114 
	C514.412842,634.087097 509.768372,631.398621 506.802948,626.758606 
	C502.853577,633.186890 498.084534,638.322205 498.107666,645.817017 
	C498.114105,647.902344 498.384033,650.210876 500.920868,650.381042 
	C503.863831,650.578491 503.570923,647.991394 503.638275,646.067627 
	C503.779388,642.036438 504.014282,638.050598 505.961456,633.948730 
	C507.843231,636.243591 506.898315,638.355896 507.323334,640.236877 
	C507.617645,641.539124 507.649567,642.669983 509.567566,642.922974 
	C511.760406,643.212219 512.726013,642.630188 512.924255,639.779114 
M679.018127,372.364502 
	C675.953003,360.579956 672.337402,348.942444 669.687805,337.032074 
	C669.866882,340.027588 670.445740,342.933746 670.961243,345.851166 
	C674.146790,363.880676 683.178955,380.936798 679.778259,400.069580 
	C683.282471,390.970856 681.956360,382.048309 679.018127,372.364502 
M235.418182,359.045837 
	C237.204971,351.494904 239.540451,344.045685 239.678314,336.183563 
	C237.094086,350.188538 232.352646,363.638092 229.162613,377.480743 
	C228.144348,381.899353 226.853607,386.343292 228.459396,390.904938 
	C228.911667,380.149048 233.118576,370.220642 235.418182,359.045837 
z"/>
<path fill="#000000" opacity="1.000000" stroke="none" 
	d="
M464.682037,745.808105 
	C432.447906,757.624756 400.153320,767.937073 367.252991,776.359070 
	C417.637787,755.025330 469.161285,737.022217 521.999207,722.737915 
	C503.594849,731.853699 484.268127,738.627563 464.682037,745.808105 
z"/>
<path fill="#000000" opacity="1.000000" stroke="none" 
	d="
M249.377548,823.532410 
	C231.235825,831.041809 214.262894,840.270264 196.241272,847.133301 
	C195.699860,847.339539 194.988235,847.098816 194.288437,847.063110 
	C198.352325,835.791260 239.017624,817.539978 255.898117,819.403931 
	C254.414825,821.860535 251.688919,822.065552 249.377548,823.532410 
z"/>
<path fill="#000000" opacity="1.000000" stroke="none" 
	d="
M682.889587,674.796204 
	C697.299133,668.875488 711.223328,662.625366 727.187317,661.762634 
	C723.355713,669.563599 680.085815,684.919128 665.048096,683.990540 
	C670.531799,679.238342 676.941895,677.829651 682.889587,674.796204 
z"/>
<path fill="#000000" opacity="1.000000" stroke="none" 
	d="
M323.827881,787.609009 
	C322.359497,787.849792 321.205902,788.417297 319.481476,786.507446 
	C326.950562,782.006409 334.486450,778.996948 343.205048,779.220337 
	C337.707062,783.937805 330.985046,785.817261 323.827881,787.609009 
z"/>
<path fill="#000000" opacity="1.000000" stroke="none" 
	d="
M622.826416,693.314819 
	C621.220825,693.057068 620.436279,692.196960 621.696167,691.415039 
	C628.578552,687.143494 636.027100,684.543152 644.273560,684.491394 
	C638.289368,689.989136 630.903137,692.054443 622.826416,693.314819 
z"/>
<path fill="#000000" opacity="1.000000" stroke="none" 
	d="
M198.432220,809.384277 
	C199.774155,810.331238 201.215118,810.711182 201.349731,813.335876 
	C192.930496,811.737610 185.283173,808.750122 177.716202,805.321289 
	C185.171829,803.117371 191.686676,805.939941 198.432220,809.384277 
z"/>
<path fill="#000000" opacity="1.000000" stroke="none" 
	d="
M569.929565,705.730957 
	C571.951172,704.674805 573.632263,703.636047 575.875549,704.702942 
	C575.402466,708.527527 572.316711,708.942993 569.875732,708.840454 
	C567.306030,708.732544 568.436829,707.055969 569.929565,705.730957 
z"/>
<path fill="#000000" opacity="1.000000" stroke="none" 
	d="
M395.515350,776.609497 
	C397.140717,776.164062 398.627411,775.660461 399.126984,777.435730 
	C399.512054,778.804199 398.257080,779.537598 397.195465,779.888123 
	C395.616486,780.409485 393.975494,781.856628 392.219879,780.076111 
	C391.982300,777.860779 393.857513,777.531250 395.515350,776.609497 
z"/>
<path fill="#000000" opacity="1.000000" stroke="none" 
	d="
M263.972046,816.571045 
	C263.156128,813.165833 265.372284,812.779724 267.579834,812.772461 
	C268.949768,812.767944 269.649658,813.989014 269.185303,815.250183 
	C268.261017,817.760864 266.221832,817.341858 263.972046,816.571045 
z"/>
<path fill="#000000" opacity="1.000000" stroke="none" 
	d="
M582.387451,701.385376 
	C584.281128,703.359619 584.198608,704.904114 581.857788,705.809082 
	C580.568726,706.307495 579.436890,705.521851 579.121704,704.325317 
	C578.489624,701.926270 579.679932,700.919495 582.387451,701.385376 
z"/>
<path fill="#000000" opacity="1.000000" stroke="none" 
	d="
M180.244568,819.346313 
	C178.060760,822.553467 176.076172,821.665894 173.648880,819.315247 
	C176.081406,817.627258 177.982269,815.589539 180.244568,819.346313 
z"/>
<path fill="#000000" opacity="1.000000" stroke="none" 
	d="
M734.156189,681.409546 
	C736.548828,681.789307 737.407898,683.009399 736.367249,684.916687 
	C735.612122,686.300781 734.159729,686.543091 733.024414,685.429810 
	C731.453735,683.889282 731.974854,682.488953 734.156189,681.409546 
z"/>
<path fill="#000000" opacity="1.000000" stroke="none" 
	d="
M187.994034,666.039307 
	C186.624283,665.074707 185.460556,664.393250 185.292725,662.905334 
	C192.984573,660.044861 233.648804,673.840027 246.286835,683.525085 
	C240.097870,685.634705 201.468094,674.117737 187.994034,666.039307 
z"/>
<path fill="#000000" opacity="1.000000" stroke="none" 
	d="
M336.665222,704.665161 
	C339.748169,704.265259 342.085876,704.959595 343.836121,708.366943 
	C340.300049,708.415833 337.270294,709.167542 336.665222,704.665161 
z"/>
<path fill="#000000" opacity="1.000000" stroke="none" 
	d="
M329.617310,705.567871 
	C327.825745,703.809265 327.888855,702.323486 329.903412,701.444153 
	C331.340118,700.817139 332.678253,701.605591 332.919678,703.109497 
	C333.264404,705.256775 332.038727,706.124817 329.617310,705.567871 
z"/>
<path fill="#000000" opacity="1.000000" stroke="none" 
	d="
M661.464355,819.575317 
	C682.561768,824.359314 703.091309,829.439087 717.657715,846.835144 
	C696.564697,839.589111 676.815186,829.345398 655.608826,820.330261 
	C658.034729,818.369202 659.583496,819.326416 661.464355,819.575317 
z"/>
<path fill="#000000" opacity="1.000000" stroke="none" 
	d="
M730.670044,803.955994 
	C732.128540,804.276489 733.194824,804.588623 735.733887,805.331787 
	C726.740112,809.033630 718.900513,811.506287 710.593628,812.601929 
	C715.979065,806.927429 722.914307,804.944519 730.670044,803.955994 
z"/>
<path fill="#000000" opacity="1.000000" stroke="none" 
	d="
M584.431274,786.752686 
	C578.602173,784.986389 573.256348,783.127502 568.782715,779.343506 
	C577.537964,779.034546 585.166443,781.980408 593.265381,786.992859 
	C589.614563,788.779175 587.227356,787.114868 584.431274,786.752686 
z"/>
<path fill="#000000" opacity="1.000000" stroke="none" 
	d="
M645.314331,817.170044 
	C643.256775,816.749084 642.307800,815.764465 642.800720,813.985413 
	C643.177734,812.624451 644.390869,812.394226 645.576538,812.670532 
	C647.062317,813.016724 648.504456,813.798889 648.563049,815.461792 
	C648.629761,817.353455 646.938293,817.087646 645.314331,817.170044 
z"/>
<path fill="#000000" opacity="1.000000" stroke="none" 
	d="
M732.173828,820.582703 
	C732.695312,816.303467 733.977539,816.112366 738.012146,819.544556 
	C736.585388,821.911072 734.541809,821.525208 732.173828,820.582703 
z"/>
<path fill="#000000" opacity="1.000000" stroke="none" 
	d="
M123.605835,937.619202 
	C116.012695,934.676697 112.424690,928.973999 110.745209,921.762512 
	C108.910439,913.884277 109.218575,905.236694 111.465179,901.428345 
	C112.705795,902.248413 112.792450,903.675354 113.255829,904.865112 
	C120.022491,922.237793 142.511536,932.444031 160.146164,926.121216 
	C167.529694,923.473938 170.529190,919.317871 168.965836,912.907593 
	C166.850677,917.352966 163.981354,920.163208 159.354736,920.776184 
	C155.148941,921.333435 151.012909,921.752563 145.664581,920.263367 
	C150.887512,917.368958 155.928802,915.672180 154.609009,909.312988 
	C153.589706,904.401611 149.538727,901.425842 147.057358,897.214233 
	C162.535202,899.614868 177.665237,902.367065 189.563141,913.601624 
	C192.834930,916.691101 193.627365,919.984802 191.888306,924.346802 
	C186.828720,937.037659 176.449600,942.660706 164.016144,943.991394 
	C150.325851,945.456543 136.781876,943.209961 123.605835,937.619202 
z"/>
<path fill="#000000" opacity="1.000000" stroke="none" 
	d="
M132.052948,919.630127 
	C128.130142,918.761353 124.819809,917.630493 123.598061,913.049927 
	C127.955345,912.771851 131.177078,914.510681 133.922623,916.812500 
	C136.490417,918.965271 134.919983,919.778137 132.052948,919.630127 
z"/>
<path fill="#000000" opacity="1.000000" stroke="none" 
	d="
M791.002563,936.985352 
	C777.498901,942.133362 763.558472,945.276306 749.045532,944.184265 
	C736.492188,943.239685 726.366821,937.838867 720.795959,925.876770 
	C717.778992,919.398560 718.508789,915.948608 724.273071,911.574280 
	C736.002502,902.672974 749.663757,898.951233 765.535950,896.791077 
	C762.304504,901.589600 758.445251,904.573547 757.441406,909.172852 
	C756.156555,915.059814 760.279968,917.427795 764.952576,919.493164 
	C757.578186,923.701782 747.859131,920.843872 743.048401,913.328369 
	C741.141663,917.130310 742.524231,919.822571 745.243652,922.191895 
	C751.237122,927.413696 758.407288,928.238892 765.897095,927.496521 
	C768.861755,927.202698 771.770020,926.359924 774.711609,925.807922 
	C786.933533,923.514587 795.163696,916.725403 798.797241,904.633240 
	C799.152527,903.450745 799.279358,901.987061 800.601074,901.226746 
	C804.715454,910.644348 802.289978,931.236328 791.180786,936.772949 
	C790.953003,937.019409 790.987976,936.999084 791.002563,936.985352 
z"/>
<path fill="#000000" opacity="1.000000" stroke="none" 
	d="
M777.209839,918.152954 
	C780.024475,914.627441 783.567749,913.270630 787.708496,912.902466 
	C787.042847,918.118652 781.815308,920.759338 777.209839,918.152954 
z"/>
<path fill="#000000" opacity="1.000000" stroke="none" 
	d="
M741.647339,608.237793 
	C737.225769,604.520569 735.725769,600.249084 738.026062,594.756409 
	C740.786743,599.379700 743.063477,604.232483 746.034668,608.666077 
	C744.189270,609.916443 743.086426,609.049316 741.647339,608.237793 
z"/>
<path fill="#000000" opacity="1.000000" stroke="none" 
	d="
M755.309204,579.786011 
	C759.677002,579.531494 763.186646,580.256042 765.939331,585.076538 
	C759.798767,584.263000 754.483093,583.203003 748.243164,584.235596 
	C750.109192,580.611877 752.766907,580.664185 755.309204,579.786011 
z"/>
<path fill="#000000" opacity="1.000000" stroke="none" 
	d="
M169.967163,601.911499 
	C171.584167,599.438965 171.497559,596.454590 173.774536,594.688538 
	C177.476288,600.989075 173.515961,608.619629 166.488449,608.756775 
	C166.625854,606.072388 169.038345,604.562378 169.967163,601.911499 
z"/>
<path fill="#000000" opacity="1.000000" stroke="none" 
	d="
M156.706360,579.768311 
	C159.373184,580.254150 161.623657,580.713806 163.681549,583.727356 
	C157.511307,583.598938 152.037582,584.173218 145.792816,585.244324 
	C148.528595,580.314758 152.173706,579.539734 156.706360,579.768311 
z"/>
<path fill="#000000" opacity="1.000000" stroke="none" 
	d="
M510.268188,325.088440 
	C510.815308,326.921478 508.819885,328.233582 509.796814,330.290436 
	C514.062500,328.429962 515.468262,323.650024 519.312744,321.713745 
	C521.049438,321.835419 519.751038,323.969177 522.050232,324.563080 
	C530.192139,318.567841 535.553467,307.003387 548.712646,306.862213 
	C546.468140,311.035858 540.843140,311.949921 539.446106,317.408539 
	C545.105896,318.081482 550.324341,315.522400 555.716980,316.557129 
	C561.109253,317.591797 566.210815,318.975769 570.470093,323.110596 
	C566.609314,322.674652 562.708313,322.455383 558.897644,321.748749 
	C553.975830,320.836060 549.443054,321.180664 544.851196,323.474915 
	C540.553589,325.622070 535.967896,327.268463 531.382812,328.742859 
	C526.951294,330.167908 524.183594,333.393005 521.463928,336.771667 
	C520.862122,337.519348 520.270508,338.498169 520.876099,339.528839 
	C521.605286,340.769653 522.805969,340.692291 523.970947,340.325439 
	C528.027954,339.047760 532.072632,337.731079 536.473511,337.132355 
	C532.320190,340.834717 527.766602,343.810303 522.462952,345.452118 
	C511.662140,348.795654 500.612823,351.446106 490.742065,357.283173 
	C489.596802,357.960419 488.375000,358.508484 487.186615,359.112427 
	C481.883240,361.807800 475.880280,363.985870 477.912445,372.120911 
	C480.384216,373.101257 481.319489,369.331665 483.879181,369.799286 
	C484.074188,372.692688 480.452484,373.795776 480.640259,376.947479 
	C484.206665,376.933411 485.794403,372.912384 489.094513,372.578125 
	C489.808136,374.735138 487.593170,375.681488 487.714081,377.732391 
	C490.810028,377.293488 492.136871,373.849670 495.223907,373.237854 
	C496.263763,376.196838 492.506165,377.366547 493.044617,380.350220 
	C496.580444,377.804504 498.618378,373.591522 503.393982,372.325775 
	C503.685669,375.419037 500.010498,377.083923 500.946899,380.659454 
	C506.340210,376.407654 510.638397,371.301544 517.623047,367.925781 
	C514.972168,373.578217 510.104950,376.535126 508.671997,381.765228 
	C514.959961,377.738892 518.727539,370.704285 526.586304,366.939636 
	C525.319031,370.642242 523.027100,372.378754 521.456848,374.564850 
	C516.791443,381.059875 512.030945,387.487183 507.412018,394.014801 
	C504.812561,397.688416 501.574127,399.316589 496.918793,399.533142 
	C488.821503,399.909851 480.709991,400.235016 471.976166,400.316254 
	C473.283051,403.115295 475.241058,402.845428 476.889191,402.893616 
	C485.391144,403.142151 493.869568,402.950165 502.308105,401.648163 
	C505.051331,401.224884 506.804291,399.663605 508.361847,397.646210 
	C513.961914,390.392670 519.470459,383.066711 525.164246,375.887604 
	C536.050964,362.161011 550.005127,352.884644 566.732971,347.783600 
	C568.253540,347.319916 569.821289,346.419525 572.348511,347.457794 
	C567.858582,350.851318 562.210632,351.184845 557.878357,355.333832 
	C560.909424,354.807007 563.291565,354.392975 565.673767,353.978943 
	C560.893738,358.329468 554.782471,360.440186 550.109497,365.368134 
	C553.216797,366.230530 555.465820,363.530731 558.843079,364.616638 
	C554.379395,369.154297 548.846436,371.264038 544.545593,375.063507 
	C554.652100,369.505676 564.372559,363.301147 574.494568,357.503693 
	C572.512146,357.898987 570.529663,358.294250 568.554443,358.688080 
	C567.712036,356.775238 569.223999,356.266602 570.088623,355.984955 
	C576.946777,353.751007 581.257874,348.242615 586.313904,343.678223 
	C586.882446,343.164948 587.783447,342.905701 588.571960,342.768524 
	C594.340820,341.765228 600.126526,341.391754 605.982056,342.085754 
	C608.030273,342.328522 610.788391,344.519531 611.855286,340.405426 
	C612.085815,339.516510 613.640564,340.099121 614.601257,340.307495 
	C622.038513,341.920776 628.863464,344.968292 634.901917,349.555206 
	C640.866943,354.086243 641.675293,362.108307 646.703247,366.621674 
	C646.161865,369.295929 644.377136,367.295380 643.686401,368.586090 
	C643.775818,368.943634 643.807251,369.452148 644.021362,369.866241 
	C646.085938,373.859924 648.289368,377.786469 650.214355,381.845398 
	C650.977356,383.454041 653.234924,385.176208 649.918091,387.117493 
	C648.302917,388.062805 650.171692,390.130920 650.935364,391.502777 
	C653.874451,396.782318 656.132874,402.279907 656.907715,408.783966 
	C653.613342,408.153320 653.238525,409.986511 653.227417,412.664612 
	C653.201721,418.868713 654.328064,425.296814 650.439819,431.497009 
	C648.722717,428.367676 650.445312,425.280090 649.177246,422.202545 
	C646.506714,426.118958 646.824036,431.156372 643.133423,435.401764 
	C643.460571,428.581482 645.871338,422.844635 644.386108,416.067871 
	C641.902466,421.230164 641.753235,426.543427 639.141968,430.838196 
	C638.713013,430.756500 638.283997,430.674805 637.854980,430.593109 
	C638.814331,424.106842 639.773743,417.620544 640.733093,411.134277 
	C637.761902,416.907227 636.382019,423.289490 632.910950,429.714935 
	C631.423706,426.087494 633.598816,423.623962 633.437317,419.695953 
	C629.032898,431.447235 628.884033,443.557831 620.989502,452.409271 
	C624.302734,457.522095 629.129700,451.906097 632.445801,454.707458 
	C634.159363,453.523254 634.798035,451.300140 636.948181,450.775482 
	C638.519165,455.537445 628.462280,458.104797 634.686768,463.650818 
	C627.411621,474.384644 617.209412,476.079590 605.643311,472.729523 
	C592.861206,469.027161 580.198059,464.932800 567.004395,462.813416 
	C563.933044,462.320007 561.071960,462.286743 557.934448,463.789612 
	C558.190125,465.471039 558.771667,466.841187 560.841309,466.917664 
	C564.331970,467.046753 566.771790,469.116455 568.675903,471.621338 
	C569.732544,473.011292 570.621887,472.399506 571.671570,472.338440 
	C578.891357,471.918427 583.563049,476.964233 589.219788,480.191620 
	C584.734802,481.392334 578.133484,477.078888 577.025574,486.168732 
	C560.707947,481.636627 543.655396,479.343262 528.739075,470.871704 
	C529.512878,465.260437 537.202271,468.255524 537.206299,461.812469 
	C533.378174,462.368256 529.787598,458.014313 525.874268,462.511658 
	C524.274170,464.350586 522.419250,462.719604 520.951599,461.798981 
	C516.635742,459.091827 513.533264,455.174866 510.600220,451.087646 
	C508.600067,448.300507 506.719666,445.310760 502.502899,443.760132 
	C502.194092,450.845306 510.055359,452.335754 511.144653,458.821014 
	C511.947357,463.599915 517.997253,468.271088 522.941589,471.844238 
	C527.944275,475.459473 532.863953,479.072205 538.876770,481.017212 
	C544.492920,482.833832 549.938599,485.177246 555.861633,487.442627 
	C553.740723,489.894623 551.779785,488.767029 549.931396,488.610779 
	C545.753418,488.257538 541.750000,487.126312 537.738037,486.010925 
	C532.986328,484.689850 529.917786,486.059143 527.619080,490.876801 
	C523.284790,487.461151 520.291077,483.162079 517.675598,478.566956 
	C516.276855,476.109589 515.223694,473.445312 513.719971,471.060089 
	C510.710205,466.285950 508.284393,466.194946 505.110046,471.014435 
	C504.171295,472.439636 502.664154,471.823090 501.899109,472.990875 
	C501.517487,474.797943 503.869934,475.066742 504.045929,476.612457 
	C503.352814,477.973511 501.315765,476.520691 500.758331,478.165070 
	C500.426910,480.515900 503.697266,480.833221 503.576691,483.194397 
	C500.401154,484.285522 499.082001,479.766571 495.457092,480.826721 
	C496.585510,487.819275 501.966309,492.771454 504.113464,499.352112 
	C497.570007,494.131897 493.884033,486.444916 488.290039,480.376312 
	C486.456635,481.732605 488.502472,483.365051 487.393036,484.727356 
	C487.061890,484.642731 486.427307,484.676483 486.243561,484.405060 
	C481.134033,476.855499 478.040741,468.381500 475.853516,459.664459 
	C473.165283,448.950500 469.940918,438.564911 464.295654,428.950836 
	C462.554230,425.985107 461.272797,422.955231 461.874146,418.513458 
	C462.400238,414.627350 464.217865,408.928070 459.530640,404.747742 
	C455.671082,401.305573 453.464691,400.760834 450.132477,404.912048 
	C448.484833,406.964691 447.165558,409.280853 445.719330,411.445404 
	C446.823273,412.627930 448.125336,410.804443 448.497131,411.846893 
	C450.812927,423.288849 443.382843,431.437225 439.319092,440.730194 
	C436.974030,446.092926 435.627380,451.781250 434.310242,457.446167 
	C432.449524,465.448853 429.344025,472.970398 425.903900,480.367828 
	C425.113922,482.066559 424.679504,484.231995 422.515228,484.991913 
	C420.927521,483.700592 422.882843,481.625122 420.932190,480.065063 
	C415.939484,486.692657 411.862152,494.088562 405.148438,499.451263 
	C407.792328,493.055725 412.400452,487.665802 414.666718,481.114471 
	C410.780579,479.039764 409.305389,484.182953 406.097504,483.050354 
	C406.290802,480.374847 409.704285,479.992371 409.924469,477.192963 
	C408.283478,475.893616 406.622284,478.266785 404.724884,477.226471 
	C404.924408,474.698273 408.628204,474.738953 408.747772,471.724884 
	C405.268799,472.899811 404.403931,470.103638 403.045410,467.979492 
	C403.198303,466.149689 406.664032,465.525482 404.576630,462.468445 
	C399.515320,464.803711 396.622406,469.093811 394.240540,473.778381 
	C392.048065,478.090546 389.939941,482.402008 386.734039,486.117523 
	C381.917786,491.699310 381.426300,492.258118 376.373810,487.458893 
	C373.974274,485.179657 372.418304,485.827820 370.424469,486.436798 
	C366.422272,487.659119 362.348175,488.449860 358.219177,488.956146 
	C356.358459,489.184265 354.336884,489.708252 351.254059,487.253204 
	C372.511261,482.785278 389.267334,472.842926 401.777130,456.335968 
	C399.388916,450.964386 408.653900,449.612183 406.060272,443.783966 
	C402.007996,446.183502 399.695038,449.865417 397.129272,453.257172 
	C395.014252,456.053101 393.167969,459.160614 390.097412,460.947357 
	C387.481476,462.469574 385.125183,464.964203 381.526367,461.198730 
	C379.152740,458.715179 375.562195,461.466187 372.514984,462.562439 
	C374.427368,467.480530 379.728119,465.717041 382.778931,469.496552 
	C367.161591,479.335205 349.389008,481.443970 331.876160,486.481720 
	C330.391327,478.946259 325.308472,479.771301 319.903656,480.878754 
	C329.070374,472.580078 341.417877,471.208679 351.576630,464.841705 
	C348.882935,461.602051 345.793671,462.382935 342.723175,462.808350 
	C327.982239,464.850800 314.078705,470.235657 299.656708,473.563385 
	C288.113800,476.226837 280.091278,471.198853 273.305817,462.598572 
	C280.759979,458.166199 271.039856,455.110291 272.856201,450.793732 
	C275.354095,453.636871 278.892548,453.806854 282.131866,454.486847 
	C285.097900,455.109497 287.799286,453.176453 286.201996,450.302612 
	C281.920776,442.599884 280.633881,433.985718 277.275635,425.886719 
	C277.275635,427.212555 277.275635,428.538391 277.275635,431.087799 
	C273.629395,425.166595 272.757172,419.484436 269.433746,414.631500 
	C270.177277,419.955475 270.920807,425.279419 271.664337,430.603394 
	C267.645020,426.580414 267.488617,421.047821 264.886871,415.496552 
	C263.391296,423.015717 266.505127,429.287109 265.572723,436.013733 
	C264.176636,432.265839 262.780548,428.517944 261.186554,424.238800 
	C259.182281,426.927246 261.367889,429.862091 259.216217,432.482941 
	C256.222198,427.753967 256.154022,422.754547 255.948196,417.681732 
	C255.812424,414.334808 258.736237,410.016052 253.201004,407.924652 
	C252.192123,407.543457 253.113174,405.482483 253.396713,404.189056 
	C255.178055,396.062897 260.155365,389.520142 264.632629,382.299561 
	C262.107513,382.686218 261.428528,385.440582 258.119965,384.880524 
	C260.508759,377.556335 264.725067,371.401001 269.000580,364.801392 
	C266.364441,365.646088 265.583160,368.219360 262.892151,368.607941 
	C262.689850,365.226349 264.865692,362.886169 266.760406,361.093292 
	C269.485657,358.514496 269.050568,354.469543 271.450775,352.192078 
	C277.996643,345.980835 285.886139,342.138306 294.794281,340.475739 
	C295.120758,340.414825 295.553314,340.128571 295.744263,340.249878 
	C302.860748,344.770813 310.835907,340.014832 318.204193,342.352478 
	C321.220123,343.309357 324.807770,342.314758 326.421295,346.572540 
	C326.926483,347.905670 329.768066,348.353424 331.726624,349.296234 
	C331.094574,350.039062 330.612823,350.605225 330.023163,351.298248 
	C334.034058,353.896790 338.960449,354.863373 342.613831,358.226562 
	C340.997864,360.560425 339.132050,357.622131 337.481689,358.896637 
	C341.016846,362.712738 346.175720,363.640137 350.243835,366.497314 
	C352.393036,361.085541 355.684021,366.371857 358.714478,365.234406 
	C357.072235,362.349030 354.101257,361.253693 351.633362,359.665985 
	C349.005005,357.975067 346.189545,356.574890 343.450073,355.044556 
	C344.274597,352.570526 346.367981,354.703857 347.423889,353.348267 
	C344.841095,350.126709 340.327637,350.284454 336.725861,347.533813 
	C339.682831,346.073792 341.961792,347.394531 344.072906,348.080383 
	C361.741669,353.820892 376.030853,364.264557 387.020966,379.251526 
	C390.961365,384.624939 395.154480,389.817780 398.971741,395.275299 
	C401.910492,399.476776 405.310028,402.027863 410.772095,402.289215 
	C419.357758,402.700012 427.902863,403.327332 437.181396,402.520874 
	C435.603851,399.763489 433.648193,400.366577 432.032623,400.286346 
	C425.046967,399.939423 418.059753,399.604523 411.069366,399.383362 
	C408.015411,399.286743 405.431732,398.162476 403.656830,395.829315 
	C396.225098,386.060089 389.750916,375.570526 381.550690,366.254974 
	C389.637695,369.451599 394.039551,377.107635 401.553070,383.015594 
	C398.683441,376.260895 394.011658,372.398132 390.954254,367.229492 
	C397.809662,370.631256 403.111572,376.112366 409.603760,381.657593 
	C408.987640,376.670532 405.696320,374.317535 402.977203,369.988098 
	C409.456238,372.827637 412.632935,377.373169 417.355103,381.487396 
	C416.384277,376.787354 412.588135,374.824097 410.977570,370.789398 
	C415.373535,371.833710 417.343781,375.705292 420.963531,376.783966 
	C421.878510,375.420776 419.736877,374.468750 420.734894,372.644409 
	C423.283630,374.266113 425.835968,375.890106 428.855804,377.811554 
	C429.084595,374.348907 426.336304,372.825714 425.384338,370.168060 
	C428.414398,369.473511 429.450867,373.125366 432.415649,372.727600 
	C430.821106,367.269531 429.937225,362.285797 423.380615,359.498138 
	C413.742157,355.400269 404.541046,350.483429 394.117706,348.279114 
	C388.541779,347.099884 383.267548,344.493896 376.710602,342.116028 
	C382.275055,339.472168 386.392578,343.605713 391.325378,342.040741 
	C386.617584,331.720581 376.806122,329.456024 368.202515,324.856873 
	C358.488708,319.664246 348.981812,322.466705 339.244141,322.436920 
	C346.522003,317.364075 354.350372,315.184570 363.107910,316.717224 
	C364.892883,317.029633 367.378265,318.708710 368.390076,316.064575 
	C369.218048,313.900818 366.780029,312.716919 365.435608,311.301575 
	C363.990021,309.779755 361.537933,309.385468 360.289124,306.166382 
	C366.329468,307.654755 371.545380,309.096130 375.747955,313.005737 
	C379.739166,316.718750 383.120056,321.119781 387.839844,323.982971 
	C389.659973,322.571716 386.849792,321.070618 388.502533,319.621094 
	C392.013916,321.525208 393.385345,326.230377 397.314026,327.360321 
	C399.569336,326.623657 397.333527,324.702637 398.942841,323.748260 
	C402.076202,325.103363 403.376617,328.949463 406.464325,330.165192 
	C408.207550,330.167419 407.415985,327.854187 409.258972,327.982483 
	C411.838867,329.680450 412.753998,333.335602 415.697510,334.893646 
	C417.599274,334.386963 416.173676,332.273804 417.797058,331.486206 
	C418.987122,332.620117 420.265015,333.837738 421.388245,334.908020 
	C423.227905,334.738892 422.524689,333.246063 423.240021,332.451782 
	C424.862274,331.823395 424.970245,334.998199 426.916260,333.977325 
	C429.222351,331.662292 427.651978,327.603149 430.682892,324.568024 
	C433.747803,338.758270 432.881348,353.775604 445.029602,364.773743 
	C446.325531,358.727661 442.694672,353.549286 444.337433,347.288666 
	C447.656738,351.451569 447.010834,356.769470 451.146912,360.909485 
	C453.922943,353.824005 451.505585,346.527252 454.769379,339.280487 
	C457.611420,346.133392 455.839264,353.133759 458.348053,359.569519 
	C462.898315,357.067627 461.731750,351.861359 464.735321,348.467834 
	C466.869537,353.867065 463.127258,359.028168 464.740631,364.377319 
	C476.541412,354.061310 475.490448,339.368652 478.905823,325.574066 
	C481.286865,328.560211 480.946442,331.525085 481.904327,334.094116 
	C483.636871,334.839417 486.815735,331.745728 486.685669,336.058868 
	C489.050690,335.600220 489.352692,333.171051 491.283295,332.549591 
	C493.039856,332.953644 491.522766,335.015106 492.985046,335.871582 
	C496.051575,334.511597 497.088501,330.934753 500.043152,328.674896 
	C501.619019,332.014404 503.328278,330.981049 505.234253,328.812408 
	C506.603271,327.254730 507.531403,325.026123 510.268188,325.088440 
M286.326447,362.357910 
	C285.798981,363.022766 284.361816,362.896057 284.651398,364.690063 
	C295.232788,358.085327 306.401031,353.936310 318.892517,354.300812 
	C307.387299,353.445251 296.703644,355.962921 286.326447,362.357910 
M636.297424,402.732269 
	C635.667603,407.101624 635.037781,411.471008 634.407959,415.840363 
	C638.752686,404.585022 638.729065,394.044159 634.077454,388.965759 
	C636.860046,393.594147 637.218262,397.652191 636.297424,402.732269 
M305.518311,454.999146 
	C307.926788,453.749054 308.848358,451.712067 306.502045,450.073303 
	C304.711639,448.822723 301.838440,446.921173 299.872101,450.899811 
	C301.622833,452.292664 303.267792,453.601379 305.518311,454.999146 
M631.811279,368.522034 
	C626.698059,364.269348 621.218872,360.645416 614.731079,358.726898 
	C621.783813,362.524872 628.547485,366.750305 635.063171,372.749084 
	C634.576233,370.278870 633.104919,369.911255 631.811279,368.522034 
M430.342438,433.824921 
	C430.596283,432.163696 429.657440,431.793213 428.944153,433.084259 
	C426.509613,437.490875 424.045715,441.940552 423.058960,448.399445 
	C425.825989,442.896362 427.971100,438.630157 430.342438,433.824921 
M628.298157,406.070343 
	C628.298157,407.039764 628.298157,408.009186 628.298157,410.083160 
	C630.602783,405.627716 631.052185,401.995300 630.431152,398.129242 
	C630.596008,400.683258 628.188477,399.120972 627.296875,400.056305 
	C627.629761,401.852814 627.955017,403.608154 628.298157,406.070343 
z"/>
<path fill="#000000" opacity="1.000000" stroke="none" 
	d="
M462.924591,444.802673 
	C466.781769,446.194855 467.403687,449.526001 468.253296,452.473907 
	C473.737183,471.500244 479.975647,490.260468 487.246704,508.685059 
	C489.924652,515.470886 493.242676,522.017944 494.636658,529.311157 
	C495.455750,533.596741 495.380707,537.644653 493.322876,541.434387 
	C489.751923,548.010803 486.047485,554.519592 482.219696,560.949890 
	C479.930756,564.795166 476.068481,566.618225 471.960419,565.302795 
	C466.966339,563.703613 465.996521,565.599731 466.282715,569.873291 
	C466.322876,570.472717 465.980011,571.097778 465.482117,572.941528 
	C461.261017,560.640869 458.585632,549.073730 454.761810,537.616394 
	C451.012360,548.802612 448.615417,560.042908 444.528290,571.034241 
	C442.080872,569.405151 443.638916,566.515442 441.713745,564.959229 
	C440.692932,564.309021 439.623779,565.068115 438.521759,565.300964 
	C433.559509,566.349792 429.578033,564.841797 426.987335,560.468811 
	C423.341431,554.314575 419.756195,548.116089 416.401123,541.800476 
	C413.479156,536.299988 413.969971,530.438599 416.016205,524.843506 
	C422.241425,507.821716 429.411743,491.147125 434.775360,473.808197 
	C437.182556,466.026550 439.345520,458.163544 441.967529,450.455963 
	C444.224304,443.822174 445.964813,443.282501 451.478851,447.204071 
	C453.977142,448.980835 455.941986,448.887085 458.168427,447.002136 
	C459.424713,445.938568 460.742584,444.852081 462.924591,444.802673 
M474.401306,553.553833 
	C483.716187,555.274414 473.873138,547.905151 477.035004,547.582581 
	C476.815186,549.337341 473.180298,550.054260 474.401306,553.553833 
z"/>
<path fill="#000000" opacity="1.000000" stroke="none" 
	d="
M458.995483,285.610168 
	C457.937958,296.701019 456.952881,307.328552 455.967773,317.956085 
	C445.532837,273.152008 452.724976,228.147964 452.917450,182.857315 
	C455.805878,185.760895 460.292847,265.088654 458.995483,285.610168 
z"/>
<path fill="#000000" opacity="1.000000" stroke="none" 
	d="
M267.392212,499.876221 
	C263.704956,495.524536 262.371124,490.775665 262.673676,485.333893 
	C263.018616,479.130554 263.040710,472.898193 262.077301,466.535492 
	C267.435699,472.300049 273.986115,476.036804 279.842712,480.457275 
	C283.540894,483.248596 287.595520,485.884521 291.423737,488.685822 
	C293.647888,490.313354 296.180511,489.903564 298.653412,489.907898 
	C305.739807,489.920319 312.826202,489.912262 319.996429,489.912262 
	C320.603546,491.614410 317.942505,491.383148 318.118408,493.329102 
	C320.307465,495.678802 324.555969,494.762604 327.311157,497.634491 
	C324.246368,498.874908 321.454834,498.609711 318.711456,498.333740 
	C308.790466,497.335815 298.869171,496.329102 288.965790,495.173584 
	C284.671600,494.672577 280.489563,493.710754 276.543365,491.693115 
	C271.135132,488.927948 268.188293,491.098602 268.388885,497.363068 
	C268.418030,498.272034 269.842194,499.678101 267.392212,499.876221 
z"/>
<path fill="#000000" opacity="1.000000" stroke="none" 
	d="
M507.259521,260.774597 
	C512.983948,254.824112 519.765076,250.985382 526.758728,247.421555 
	C537.025879,242.189606 538.307434,237.534256 532.446716,227.502335 
	C531.645752,226.131302 530.395081,224.943695 530.281006,222.848022 
	C533.213196,223.068192 534.001587,226.432678 536.625000,226.590973 
	C539.732178,225.158844 540.068420,221.026367 543.226746,219.377808 
	C544.244080,221.614746 543.070068,223.227005 542.633545,224.909241 
	C541.965820,227.482330 541.231262,230.006897 541.248901,232.727417 
	C541.307312,241.745361 543.792419,243.693069 552.319458,241.501495 
	C558.155396,240.001572 564.052917,238.741043 570.106567,237.936569 
	C566.976196,241.196609 562.799377,242.377579 558.974365,244.018265 
	C552.448303,246.817535 548.677063,251.544708 547.036194,258.301849 
	C545.587280,264.268707 543.977356,270.196503 542.434326,276.140442 
	C542.231506,276.922089 542.116760,277.782104 540.266052,278.133789 
	C540.077393,269.445251 541.570557,260.848022 540.342041,252.143326 
	C534.911804,251.758179 531.424622,255.846954 527.340942,257.158386 
	C525.154236,256.909210 526.424805,254.517792 524.440002,254.106064 
	C519.598450,255.959229 514.928833,258.791138 510.222046,261.583282 
	C509.377380,262.084351 507.436005,264.707550 507.259521,260.774597 
z"/>
<path fill="#000000" opacity="1.000000" stroke="none" 
	d="
M594.307617,489.563110 
	C598.514954,489.623566 602.375916,489.379944 606.165039,489.793823 
	C612.973022,490.537476 618.130188,488.434509 623.932556,484.382385 
	C628.251343,481.366364 632.028076,477.140808 637.433777,475.130981 
	C641.058472,473.783325 643.681763,469.742462 647.454590,466.258911 
	C647.307007,473.188049 645.548523,479.376984 646.572144,485.567993 
	C647.567322,491.586517 643.486145,494.792816 640.338623,499.167297 
	C638.546753,496.890656 639.787842,494.997711 638.766602,493.291656 
	C637.573669,491.298859 636.708740,489.836060 634.236694,491.061005 
	C622.974731,496.641602 610.626953,496.028473 598.616821,497.213470 
	C593.474731,497.720856 588.292297,499.393860 582.396545,497.703857 
	C585.411011,494.585114 589.456360,495.631470 591.917725,493.977570 
	C593.165771,492.052734 590.738525,491.551514 591.070679,490.224640 
	C591.914795,489.333466 592.963135,489.629791 594.307617,489.563110 
z"/>
<path fill="#000000" opacity="1.000000" stroke="none" 
	d="
M379.181305,522.790283 
	C383.763275,525.360596 384.496124,526.136353 388.958069,533.264648 
	C379.950317,534.071777 370.861206,533.961365 364.072723,528.223206 
	C356.601776,521.908203 349.030548,516.903198 339.039948,515.581909 
	C345.965485,513.297791 352.467072,510.511017 359.957153,511.284058 
	C364.771454,511.780914 369.564331,513.995300 374.743317,510.983368 
	C376.991730,509.675751 380.753235,512.303040 384.497192,510.668549 
	C383.161957,514.175049 380.399719,515.071777 378.606750,516.889526 
	C376.474243,519.051453 376.362946,520.822144 379.181305,522.790283 
z"/>
<path fill="#000000" opacity="1.000000" stroke="none" 
	d="
M528.527100,511.658142 
	C537.937256,511.177246 547.048889,512.357910 556.222046,511.804230 
	C560.936584,511.519653 565.800781,513.715210 570.622864,514.795715 
	C570.411011,516.708252 569.156311,516.298828 568.351746,516.398560 
	C560.342468,517.391235 553.758423,520.763489 547.759460,526.387390 
	C540.415710,533.271973 531.012146,534.234741 520.573486,532.927002 
	C523.604431,529.541992 525.573975,526.251099 529.266052,524.336853 
	C534.171692,521.793335 534.183899,519.313232 529.791138,515.758606 
	C528.283630,514.538696 526.353943,513.695679 525.703247,511.611053 
	C526.568542,510.221100 527.413452,511.363831 528.527100,511.658142 
z"/>
<path fill="#000000" opacity="1.000000" stroke="none" 
	d="
M408.144836,513.244995 
	C410.774841,507.696564 413.433807,502.600342 417.028381,497.742981 
	C418.808502,499.488251 417.655914,500.792633 417.188324,502.026550 
	C413.893036,510.722565 410.709656,519.466125 407.168579,528.061768 
	C405.316711,532.557068 405.783051,536.712402 407.350677,541.065796 
	C410.364075,549.434326 414.922668,556.932495 419.940735,564.202026 
	C420.953278,565.668823 422.416992,566.928162 422.640900,569.430176 
	C417.667023,568.417419 416.475861,562.507080 412.155396,561.568970 
	C409.686371,562.249573 410.922302,564.655518 409.478119,565.991577 
	C408.747681,564.900696 408.056152,563.867920 407.463226,562.982422 
	C405.541962,562.047546 405.614655,564.772827 404.715546,564.608826 
	C399.900238,558.846252 398.851562,552.608887 398.637573,545.508423 
	C398.349121,535.938232 400.418182,527.484253 405.167755,519.413818 
	C406.258972,517.559570 407.049255,515.528320 408.144836,513.244995 
z"/>
<path fill="#000000" opacity="1.000000" stroke="none" 
	d="
M497.163818,561.251587 
	C493.170715,563.316223 491.479523,567.856750 485.897980,569.937866 
	C489.023254,565.127625 491.311401,561.380737 493.823364,557.790405 
	C497.981140,551.847778 500.640564,545.236389 502.950562,538.432617 
	C503.963928,535.447876 503.699310,532.612000 502.826385,529.635132 
	C500.100891,520.340576 495.945251,511.598511 492.583557,502.552032 
	C491.973114,500.909210 490.667725,499.415771 491.311035,497.390350 
	C493.257263,497.503357 493.644409,499.154602 494.344971,500.337433 
	C499.783905,509.520782 504.514771,519.087769 508.768280,528.852539 
	C512.582153,537.608093 509.995880,546.964355 509.837982,556.002441 
	C509.801453,558.094055 505.264008,560.062866 506.103821,563.658569 
	C504.024628,564.459839 504.171539,561.756287 502.768860,561.995667 
	C500.887146,562.790955 501.949799,565.261719 500.194489,566.101624 
	C497.867798,565.267700 499.622559,562.126892 497.163818,561.251587 
z"/>
<path fill="#000000" opacity="1.000000" stroke="none" 
	d="
M451.913147,565.258911 
	C453.031128,559.669434 452.478851,554.268372 454.404480,548.924194 
	C458.064178,556.829834 460.244263,591.320923 454.912415,597.873779 
	C450.403229,587.133301 451.244659,576.414490 451.913147,565.258911 
z"/>
<path fill="#000000" opacity="1.000000" stroke="none" 
	d="
M426.273438,95.303619 
	C422.667664,94.764633 419.726898,96.948845 416.456451,96.136543 
	C422.440094,88.752205 444.591522,86.950256 457.913055,93.144707 
	C446.952911,93.899231 436.841431,94.595337 426.273438,95.303619 
z"/>
<path fill="#000000" opacity="1.000000" stroke="none" 
	d="
M655.063416,438.804077 
	C653.986084,445.794464 653.986511,452.652008 649.042725,458.059875 
	C648.654114,448.005585 651.065491,438.471161 654.477844,428.370300 
	C656.474915,432.063812 654.804199,435.290588 655.063416,438.804077 
z"/>
<path fill="#000000" opacity="1.000000" stroke="none" 
	d="
M450.590668,145.594788 
	C450.759613,142.110962 450.419983,138.953094 453.242279,135.095016 
	C452.812897,147.349991 456.142853,158.330658 452.479126,169.325302 
	C450.391052,161.664581 450.447113,153.849304 450.590668,145.594788 
z"/>
<path fill="#000000" opacity="1.000000" stroke="none" 
	d="
M391.345398,502.336609 
	C389.824921,503.578552 388.634338,504.733246 385.334808,504.584656 
	C391.088837,497.574188 395.294739,490.665100 397.990448,482.525909 
	C400.946533,488.595306 398.039703,496.904449 391.345398,502.336609 
z"/>
<path fill="#000000" opacity="1.000000" stroke="none" 
	d="
M516.267456,500.687805 
	C510.794342,496.408295 511.100830,490.499176 510.678894,484.722107 
	C515.196167,491.113739 518.358276,498.239685 524.572754,504.912109 
	C520.122009,504.689636 518.621338,502.266998 516.267456,500.687805 
z"/>
<path fill="#000000" opacity="1.000000" stroke="none" 
	d="
M297.348267,507.729004 
	C304.709961,508.026886 310.482574,513.012695 317.711365,512.268860 
	C312.248474,516.070190 297.628265,513.481934 292.197205,508.244019 
	C293.691406,507.075806 295.390167,507.962280 297.348267,507.729004 
z"/>
<path fill="#000000" opacity="1.000000" stroke="none" 
	d="
M615.551758,510.075928 
	C608.011169,514.091187 600.306030,514.236328 592.409363,513.154297 
	C601.030151,512.213745 608.506531,505.949890 617.700012,507.817841 
	C617.887451,509.289185 616.487427,509.254578 615.551758,510.075928 
z"/>
<path fill="#000000" opacity="1.000000" stroke="none" 
	d="
M554.086670,256.495117 
	C554.963928,255.842148 555.616455,255.415497 556.268982,254.988861 
	C554.480591,261.918793 550.459656,267.754364 548.741821,274.556183 
	C546.984375,267.545929 548.516296,261.563232 554.086670,256.495117 
z"/>
<path fill="#000000" opacity="1.000000" stroke="none" 
	d="
M330.487976,502.242157 
	C333.981201,502.416077 337.073364,502.657166 341.509979,503.003113 
	C334.778320,508.060028 328.156433,505.216064 322.251678,506.854340 
	C324.082001,503.637817 327.257416,503.298370 330.487976,502.242157 
z"/>
<path fill="#000000" opacity="1.000000" stroke="none" 
	d="
M570.603394,504.989746 
	C569.652832,504.117493 569.219055,503.235840 570.470398,502.973114 
	C576.629028,501.680267 582.541565,501.942657 587.689575,506.420105 
	C582.080566,506.302368 576.446289,506.862823 570.603394,504.989746 
z"/>
<path fill="#000000" opacity="1.000000" stroke="none" 
	d="
M456.889618,435.949524 
	C456.306580,438.523468 456.607452,440.959198 454.747009,443.713440 
	C452.019379,437.466003 452.579620,431.991333 454.187256,425.632690 
	C456.164398,429.199615 456.262238,432.450317 456.889618,435.949524 
z"/>
<path fill="#000000" opacity="1.000000" stroke="none" 
	d="
M549.520325,207.090027 
	C548.815308,208.806030 548.223999,210.151688 546.908752,211.053040 
	C544.731323,206.375107 546.446716,201.100250 552.107361,196.201340 
	C551.186584,200.154785 550.420410,203.444611 549.520325,207.090027 
z"/>
<path fill="#000000" opacity="1.000000" stroke="none" 
	d="
M482.512360,95.714478 
	C480.084686,97.252609 473.357544,95.986671 469.339813,93.364388 
	C474.381348,90.303528 478.238464,93.595879 482.512360,95.714478 
z"/>
<path fill="#000000" opacity="1.000000" stroke="none" 
	d="
M449.863464,660.022827 
	C449.363770,662.603699 450.007355,665.046448 447.707336,667.859558 
	C446.353546,662.563782 445.448273,658.096069 446.452911,652.697876 
	C449.380219,654.849365 450.008392,657.063965 449.863464,660.022827 
z"/>
<path fill="#000000" opacity="1.000000" stroke="none" 
	d="
M459.990234,664.454895 
	C459.846710,659.855286 459.952850,655.709839 462.441742,650.599792 
	C464.080658,657.587158 463.156830,663.068726 461.870209,668.697327 
	C459.869873,667.859436 460.337097,666.185974 459.990234,664.454895 
z"/>
</svg>