<svg version="1.1" id="Layer_1" xmlns="http://www.w3.org/2000/svg" xmlns:xlink="http://www.w3.org/1999/xlink" x="0px" y="0px"
	 width="100%" viewBox="0 0 896 820" enable-background="new 0 0 896 820" xml:space="preserve">
<path fill="#000000" opacity="1.000000" stroke="none" 
	d="
M686.416748,512.714844 
	C687.256958,516.832581 686.957397,520.547729 685.509460,523.931091 
	C682.169800,531.734680 678.544128,539.417786 674.934692,547.102905 
	C673.540894,550.070557 671.054382,551.992676 668.185120,553.540649 
	C652.126526,562.204346 634.915894,568.015259 617.687317,573.704224 
	C611.632080,575.703735 605.476624,574.441833 599.854431,571.312500 
	C598.550171,570.586548 597.342041,569.675232 596.138306,568.783508 
	C582.674561,558.809082 586.467957,559.517517 574.947998,570.732056 
	C567.987915,577.507629 564.297546,585.448486 564.977051,595.311707 
	C565.297363,599.961243 565.059204,604.648621 565.362183,609.300110 
	C566.202515,622.200256 559.021057,631.015442 550.099854,638.654663 
	C543.899780,643.963867 538.328979,649.878174 533.092712,655.996399 
	C528.791016,661.022583 524.226318,664.905029 517.865356,666.620544 
	C515.460022,667.269226 513.273315,668.603455 511.003601,669.377930 
	C502.925995,672.134399 496.426208,677.175476 489.401581,681.742249 
	C482.437592,686.269714 473.498932,687.790161 465.374268,690.471619 
	C464.031281,690.914917 462.351959,690.837830 460.947510,690.501770 
	C456.833527,689.517517 452.793121,689.298096 448.705688,690.569153 
	C446.908936,691.127869 444.933655,691.161865 443.288330,690.411011 
	C436.064423,687.114258 428.439301,685.033081 420.899139,682.683289 
	C420.431488,682.537598 419.893188,682.317261 419.599670,681.958313 
	C413.781860,674.843384 405.216431,672.416931 397.359283,668.734131 
	C395.215515,667.729309 393.025146,667.054443 390.793793,666.438721 
	C386.509308,665.256409 382.613403,663.312561 379.832336,659.844116 
	C376.282715,655.417175 371.896027,651.754395 368.342407,647.455078 
	C364.122803,642.349976 359.103424,638.320312 354.033661,634.349548 
	C345.476288,627.647339 342.906525,618.844910 344.131958,608.637634 
	C344.892334,602.304077 344.826721,595.987061 344.529785,589.681885 
	C344.209473,582.880615 340.743469,577.427307 336.128845,572.571289 
	C323.449432,559.228943 326.453186,559.135681 312.343842,569.929016 
	C304.635834,575.825439 296.718597,576.765076 287.170197,572.665283 
	C272.666138,566.437744 257.476471,561.850220 243.353485,554.569275 
	C238.466141,552.049683 234.963867,548.798157 232.900528,543.761841 
	C231.323517,539.912598 229.811676,535.976013 227.696396,532.419922 
	C222.192551,523.167053 221.482132,513.582214 225.119568,503.634766 
	C226.824814,498.971344 226.615494,494.643921 224.532578,490.159027 
	C222.853119,486.542847 221.773163,482.652191 220.174149,478.993927 
	C213.978958,464.820496 214.501099,450.661835 221.124405,436.978149 
	C224.460739,430.085327 224.290558,423.950500 221.702393,416.999390 
	C215.071823,399.191559 213.314331,381.101837 220.423599,362.899567 
	C221.672089,359.702972 220.845062,356.715790 219.891449,353.661041 
	C212.077469,328.630249 208.815247,302.972412 209.754135,276.806274 
	C210.490906,256.272888 213.342651,236.022079 220.064026,216.527893 
	C228.753067,191.326904 244.725235,170.887833 263.801239,152.893280 
	C304.568451,114.437241 353.097534,89.895241 406.867798,75.493767 
	C421.266846,71.637222 436.164978,68.768684 451.158386,68.830139 
	C480.585999,68.950745 509.001312,75.205048 536.305725,85.950455 
	C566.792358,97.948158 595.905884,112.781784 622.149109,132.540756 
	C645.349915,150.009109 665.408447,170.640686 680.197937,195.902924 
	C689.944336,212.550766 694.447449,230.950287 697.312195,249.819809 
	C702.644348,284.942322 700.163635,319.508942 689.661255,353.453339 
	C688.423035,357.455231 688.329041,361.080139 689.830200,365.072632 
	C696.460999,382.707489 694.021484,400.174438 687.814697,417.272491 
	C685.400574,423.922577 684.928467,429.708130 688.159729,436.350952 
	C695.132385,450.685120 696.013062,465.581573 688.828613,480.168793 
	C683.648193,490.687012 682.149780,501.198578 686.416748,512.714844 
M551.842163,143.032166 
	C557.108887,143.118652 560.453918,147.453796 565.056213,149.008240 
	C566.590515,149.526459 567.865540,151.356155 570.764343,149.707901 
	C557.145691,138.585800 541.770752,130.960312 528.698181,120.088669 
	C534.517212,120.480263 538.896606,125.050385 544.881836,124.926720 
	C533.955872,114.980499 520.528931,108.828125 507.055939,100.440384 
	C512.614075,99.672729 515.633057,102.385567 519.034790,103.687393 
	C534.755981,109.703773 550.385864,115.942642 564.858826,124.684044 
	C567.136658,126.059792 570.865540,127.300186 571.245605,129.152557 
	C572.768433,136.575241 579.832275,136.319824 584.215210,139.646698 
	C586.903564,141.687302 590.603943,142.347366 592.427002,145.177094 
	C592.254089,146.853577 590.315918,145.868240 590.329895,147.522675 
	C595.740540,152.092407 603.075684,154.093155 607.614685,158.394394 
	C608.078979,161.203812 605.916260,159.415161 605.889221,161.000305 
	C610.026489,163.972122 614.917603,166.019852 618.318909,169.742783 
	C617.346191,171.382507 615.924927,169.639526 615.513733,171.211823 
	C619.479858,174.229919 623.415405,177.224747 626.723267,179.741928 
	C627.356506,182.118179 624.908813,180.787079 625.208679,182.374023 
	C628.094421,185.807098 632.758667,187.400665 635.308716,190.972794 
	C634.049194,193.043320 632.499939,191.193283 631.472961,192.211166 
	C635.248840,196.800461 640.835999,199.680069 643.392822,205.143127 
	C642.287781,206.620911 640.922119,204.506271 639.797180,205.749390 
	C641.990051,208.392181 644.039368,210.802307 646.016113,213.270599 
	C646.935913,214.419220 648.821533,215.973495 648.059753,216.995224 
	C646.006409,219.749512 648.356384,221.158417 649.183777,223.083389 
	C649.811157,224.542999 651.139771,225.807358 650.617065,227.658249 
	C649.817993,227.781113 649.078735,227.894791 648.229309,228.025391 
	C649.660339,231.104614 652.268799,233.505508 652.407349,236.550034 
	C651.666565,238.363724 649.850220,236.040222 649.539551,237.789261 
	C649.951172,240.568741 652.406738,242.523911 651.938721,245.179733 
	C650.972656,246.471619 649.577698,244.416382 648.835205,245.901962 
	C651.703796,254.738281 651.703796,254.738281 648.062134,255.387054 
	C647.920105,257.751617 649.695862,260.026764 648.894104,262.075867 
	C647.299011,263.131348 646.646606,260.677704 645.253906,262.180176 
	C648.850464,267.693726 641.975342,272.009277 644.098389,276.843964 
	C642.348816,277.977753 642.045959,276.022339 640.882263,276.592773 
	C640.989014,279.548737 643.539734,283.844391 641.740356,285.076385 
	C638.107056,287.564056 640.699219,289.792389 640.673401,292.050629 
	C640.653625,293.775848 641.877136,295.524719 641.335571,296.242645 
	C639.395447,297.935669 639.206482,295.611542 637.520874,296.875092 
	C640.755615,299.911926 637.833069,304.228027 639.184143,307.183624 
	C641.603882,312.477295 638.894470,319.068420 643.785828,323.489166 
	C643.930420,323.619873 643.781921,324.127289 643.704651,324.443054 
	C642.736450,328.403656 645.354614,330.191193 648.970764,333.019531 
	C648.198181,329.545105 647.742004,327.317535 647.205627,325.109406 
	C643.023438,307.891266 643.297546,291.029755 649.425293,274.099854 
	C653.311157,263.363525 657.425049,252.429092 657.620239,240.767746 
	C657.918091,222.972427 651.541199,207.242462 641.821899,192.656891 
	C630.183472,175.191162 614.441345,161.326004 600.744141,145.667282 
	C599.637512,144.402191 597.630737,143.632263 597.893982,141.225845 
	C599.233459,140.946884 600.173096,141.631256 601.064819,142.317825 
	C610.715332,149.748489 619.712036,157.930557 628.533508,166.310272 
	C630.207153,167.900131 631.307251,170.048309 633.472961,171.174225 
	C638.294373,173.680847 641.983093,177.720108 645.356689,181.680176 
	C648.884521,185.821320 652.376709,190.286972 655.811218,194.389084 
	C658.522949,197.627975 660.369263,200.776474 661.916260,204.441101 
	C662.160889,205.020401 662.681641,205.987640 662.995361,205.957230 
	C667.362488,205.533859 666.253174,209.370209 667.156555,211.437012 
	C667.984497,213.331161 668.414185,215.128754 669.883179,216.950836 
	C672.346680,220.006378 674.729492,223.985870 674.994202,227.728729 
	C675.296509,232.003952 680.276550,235.262390 677.373596,239.958679 
	C677.317505,240.049438 677.422974,240.372681 677.514465,240.403183 
	C682.756226,242.150284 678.692444,245.420013 678.753479,248.004410 
	C678.764099,248.457031 678.634521,248.912949 678.568665,249.374771 
	C679.728027,249.543106 680.301392,247.974442 681.682007,248.866623 
	C681.682007,256.657501 681.682007,264.606628 681.682007,272.524841 
	C682.825500,272.620667 683.218140,271.192139 684.349976,272.076660 
	C684.700378,275.732361 682.642273,278.927521 682.767395,282.436005 
	C681.919189,288.503174 683.949524,294.675995 680.997253,300.703217 
	C681.900391,301.702637 683.367249,299.537018 684.077698,301.511322 
	C683.836426,304.717529 683.083069,308.341339 682.630493,311.492004 
	C681.941101,316.290802 682.717468,321.639343 680.331970,326.273743 
	C679.371948,328.138794 679.441162,329.759552 682.225647,329.751617 
	C683.173340,328.007202 683.511841,326.242981 683.774841,324.415131 
	C687.305786,299.880280 687.861450,275.276581 684.533325,250.717300 
	C681.939270,231.574615 676.531006,213.236740 665.523193,197.020660 
	C651.913208,176.971191 635.104553,160.074417 615.430725,145.882187 
	C578.419067,119.182907 539.461487,96.813248 494.285675,86.580101 
	C473.858795,81.953033 453.314117,79.369019 432.913422,83.080620 
	C401.755493,88.749352 371.289581,97.070000 343.769318,113.972519 
	C313.797089,132.381042 283.610504,150.167633 259.661011,176.815994 
	C242.204132,196.240128 230.650085,218.052261 226.211609,243.735718 
	C222.094742,267.558258 222.183563,291.483643 224.631256,315.415009 
	C225.139084,320.380035 225.039810,325.658051 227.319412,330.370850 
	C230.274460,329.255402 229.914658,327.240448 228.842178,325.414215 
	C226.328903,321.134674 229.200897,315.874268 225.991821,311.623199 
	C224.556122,309.721313 227.696167,310.152313 228.292343,309.175385 
	C227.270493,306.140198 225.100784,303.621521 224.985046,300.200806 
	C226.083633,300.091553 226.946915,300.005707 227.878113,299.913116 
	C225.532822,294.636536 228.814560,288.647217 225.150177,283.789551 
	C224.910477,283.471802 224.957718,282.452423 225.106079,282.397919 
	C229.074310,280.939758 226.034851,278.628967 225.834351,276.685913 
	C225.684372,275.232513 224.615021,273.898621 225.031494,272.856476 
	C225.835754,271.221954 227.171967,273.491516 227.633881,271.843231 
	C225.505569,267.109070 230.038681,261.912872 226.008698,257.852692 
	C227.513824,256.336884 228.236801,258.265015 229.286621,257.517059 
	C229.004211,254.300415 227.046814,251.355896 227.310745,248.159210 
	C228.549591,246.929367 229.401505,249.399155 230.549835,248.174667 
	C230.360077,245.750870 229.012115,243.438873 229.652222,241.117035 
	C230.756729,239.724976 231.577515,242.843628 232.663055,240.936081 
	C232.054077,238.336334 230.984940,235.670929 231.977173,233.083542 
	C233.161911,232.664291 233.541245,234.406982 234.538574,233.344223 
	C235.164627,230.247635 231.320358,225.662079 237.571671,223.640381 
	C237.924393,220.847946 237.213486,217.583099 241.243439,214.778275 
	C243.511856,213.199448 243.934586,208.542480 246.451630,205.267944 
	C249.462128,201.351440 252.279343,196.690063 255.046204,192.258621 
	C258.289978,187.063339 262.828186,183.119492 266.754089,178.644760 
	C270.804565,174.028076 276.292786,170.708710 280.786560,166.437347 
	C289.247528,158.395111 297.851593,150.534805 307.052948,143.345734 
	C308.497223,142.217331 309.875641,140.691345 312.713348,141.523788 
	C311.286926,143.144302 310.220032,144.368149 309.140594,145.580856 
	C296.521881,159.757629 282.201630,172.401123 271.017883,187.870758 
	C258.706268,204.900436 250.454010,223.254364 252.261230,244.940140 
	C253.101593,255.024109 256.516754,264.526550 259.918518,273.812653 
	C265.996063,290.403107 266.604492,306.886047 262.584412,323.854828 
	C261.909882,326.702057 260.597473,329.582825 261.150452,333.647247 
	C263.360107,330.605377 266.385040,328.722443 266.150513,325.923004 
	C265.719330,320.775879 268.281006,316.267731 269.283630,311.646729 
	C270.190552,307.466858 268.309601,303.269714 270.368134,299.441071 
	C270.510559,299.176117 270.178741,298.356750 269.860565,298.190002 
	C266.778778,296.574829 268.724182,294.067444 268.761871,291.955994 
	C268.785065,290.656555 269.907318,288.615784 269.417694,288.187988 
	C265.321777,284.609467 268.642334,280.523041 268.367432,276.642548 
	C267.071899,277.310883 264.637054,278.387146 265.233124,276.136749 
	C266.510040,271.315887 260.454712,267.739502 263.865173,263.282867 
	C257.279388,260.821350 262.543060,256.668365 261.940308,253.522507 
	C260.876190,253.772369 260.605316,255.601410 258.947052,254.906982 
	C257.313446,251.552582 260.556061,248.767624 260.366547,245.557358 
	C257.331635,245.148956 257.331635,245.148956 260.149353,236.633133 
	C259.062683,236.138107 258.413269,238.392548 257.107025,236.989334 
	C257.122620,233.617172 260.016449,231.245209 260.730103,228.033569 
	C259.883423,227.840622 259.007446,228.671951 258.274933,227.588486 
	C258.358246,225.586182 259.923126,224.163513 260.805969,222.435745 
	C261.481964,221.112808 263.194580,218.949677 262.969574,218.739288 
	C258.815979,214.855209 263.919861,213.655121 265.062195,211.486969 
	C266.046204,209.619308 267.650024,208.078217 268.848206,206.559555 
	C268.475189,204.764664 266.335724,206.722778 266.243774,204.691162 
	C268.675171,199.361389 274.552185,196.919800 277.885010,192.165146 
	C276.711609,191.293808 275.351685,192.843597 274.330139,191.179901 
	C276.736389,187.044006 281.785126,185.602448 284.803955,181.888092 
	C284.195251,180.987595 282.600311,181.830811 282.391846,179.987045 
	C286.634674,176.820374 291.072296,173.508301 295.759155,170.010223 
	C293.995789,169.762909 292.678436,171.595734 291.082977,169.820648 
	C293.062714,167.007996 296.420502,166.021423 298.909088,163.948929 
	C299.894836,163.128006 302.019043,162.587158 301.531219,161.327972 
	C300.174835,157.826569 303.024719,157.362762 304.778076,156.272064 
	C308.737366,153.809158 312.853851,151.600311 316.859772,149.210022 
	C317.830353,148.630905 318.620117,147.748795 319.390594,147.093185 
	C319.308960,145.717896 317.384155,146.303818 317.653687,144.495316 
	C322.510406,140.625000 328.584290,138.230560 334.134674,134.963593 
	C335.410461,134.212677 337.610382,133.280457 337.619232,132.413589 
	C337.675354,126.921867 342.396118,126.071060 345.663879,124.066994 
	C362.092316,113.991539 380.377380,107.964577 397.986969,100.465172 
	C398.965149,100.048592 400.091553,99.223648 401.339233,101.065598 
	C388.821045,108.858986 375.334991,115.171661 364.254089,125.181763 
	C370.062866,124.849014 374.585266,120.743866 380.330658,120.409943 
	C367.433105,131.129852 352.249725,138.612183 339.860596,149.958038 
	C346.470886,149.293762 351.006836,143.858978 358.922394,142.569763 
	C346.741547,153.488998 333.259552,160.582169 323.454987,171.972626 
	C330.913696,169.254349 337.101166,163.986115 345.146912,162.503296 
	C335.350830,170.843216 325.245270,178.714600 316.402344,187.999268 
	C321.882141,185.083496 327.361908,182.167725 332.841705,179.251953 
	C333.167206,179.754562 333.492706,180.257172 333.818176,180.759766 
	C323.126648,188.699478 313.780182,197.901917 305.301025,209.642181 
	C311.481537,206.541550 315.354248,202.031616 321.116699,200.541031 
	C313.551331,209.115433 305.282288,217.038452 301.236359,228.562866 
	C304.691742,226.803436 305.891418,222.978851 310.312805,221.718124 
	C304.281494,232.741623 300.535919,243.464188 300.816467,255.236053 
	C303.685577,250.063843 305.066559,244.164032 309.646484,239.861786 
	C308.316681,249.371948 305.057465,258.643158 306.690399,269.475555 
	C308.849579,264.851349 310.540100,261.230835 312.230621,257.610291 
	C313.026642,262.539917 312.562958,267.093781 312.368713,271.659119 
	C312.177673,276.149048 312.696594,280.550751 314.823761,285.184540 
	C317.126160,281.461090 316.972198,277.499023 320.023804,274.109924 
	C320.674896,281.661987 319.438843,288.678955 322.667542,295.317047 
	C326.078766,293.321686 324.209747,288.596497 327.493591,287.085388 
	C330.388916,291.491028 323.766541,299.280609 333.087311,300.913177 
	C333.786163,306.197632 335.265900,311.222168 339.415527,316.548218 
	C327.858887,315.047638 317.547211,312.059998 306.256775,313.673645 
	C310.050049,315.695404 314.131897,314.542603 317.615814,317.902496 
	C310.919739,318.756927 304.792572,318.419647 298.379517,320.709991 
	C302.511200,323.814026 307.569519,322.006439 311.770233,326.379303 
	C294.474182,324.825806 280.189148,329.470612 268.008240,339.845459 
	C255.802811,350.241180 249.832092,364.352631 244.834564,378.934204 
	C245.226013,379.163086 245.617462,379.391937 246.008911,379.620789 
	C248.034866,375.724823 250.060806,371.828857 252.086746,367.932892 
	C252.687317,368.088226 253.287903,368.243561 253.888474,368.398895 
	C245.995911,388.793640 248.440842,409.269775 251.708984,429.194946 
	C253.516556,430.911743 254.540054,427.986359 255.776276,429.591339 
	C258.214020,438.927216 261.085388,448.192749 260.912781,459.064758 
	C255.966644,454.194397 256.582001,448.061157 253.766891,443.293610 
	C251.067459,451.391907 253.681137,460.000732 250.675964,468.060974 
	C248.229416,463.461945 250.004120,456.557220 242.862915,455.039856 
	C238.372864,454.085846 234.625778,448.548584 229.284668,452.833221 
	C227.406464,464.000000 228.837982,470.680573 233.865875,473.583435 
	C235.888840,469.744415 233.608002,465.123047 236.013260,460.606873 
	C238.643433,466.062439 238.145981,471.602203 240.256241,476.463715 
	C242.303726,475.225769 240.914291,472.738525 243.023224,471.101776 
	C246.245056,480.603394 244.630981,490.521149 246.806198,500.341400 
	C249.550415,498.020447 248.292908,494.488647 251.151611,491.957947 
	C251.151611,499.033386 251.151611,505.470215 251.151611,512.455566 
	C253.731247,510.161835 253.273590,506.899109 255.936707,505.203400 
	C257.062378,510.556183 255.481720,515.856567 256.950897,521.398438 
	C260.019623,518.732788 259.265259,514.933655 261.820374,512.241943 
	C263.202606,518.000000 261.314697,523.694092 263.364410,529.953308 
	C266.571014,526.239380 266.419037,521.864685 269.189606,518.270691 
	C271.076965,522.278687 269.388763,526.312439 270.924744,529.769165 
	C274.503998,528.887634 272.648651,524.368164 275.644745,523.325623 
	C277.492798,526.326477 276.281006,530.164917 278.384216,533.112610 
	C281.195770,531.899475 279.840363,528.112915 282.635834,527.049744 
	C284.298737,530.289062 282.187988,534.113525 284.612640,537.201477 
	C288.033661,535.372437 286.648743,530.810608 289.652161,529.039001 
	C292.399536,532.749573 289.617218,537.255432 291.709839,541.426697 
	C294.958923,538.854248 294.083130,534.391235 296.948242,531.827332 
	C298.730927,535.016602 295.680176,538.949890 299.147919,541.320923 
	C302.430634,539.665588 301.860382,535.518921 304.655212,533.663391 
	C307.099487,535.411560 303.885376,538.841187 306.760712,540.326660 
	C309.187225,540.284302 309.085571,537.131531 311.394714,536.689697 
	C312.850067,537.283447 311.491180,539.728638 313.441772,540.177551 
	C315.772034,539.518555 315.951599,536.320312 318.606354,535.652893 
	C318.998383,536.297546 319.265472,537.375427 319.848938,537.588989 
	C322.894623,538.703674 323.126434,534.818542 325.336121,534.318542 
	C326.693970,534.658691 325.688354,536.662537 327.164764,536.910583 
	C335.320587,531.917542 342.953033,538.561768 350.999786,537.554749 
	C348.748932,540.375244 344.777527,539.118652 341.829376,542.574829 
	C352.056885,542.317993 361.124359,543.290771 369.031860,548.608887 
	C376.579651,553.685059 382.494263,560.335693 388.618866,568.265564 
	C383.078400,567.982117 381.326019,562.843201 376.696075,563.078064 
	C376.442810,566.264709 380.291473,567.797363 379.414825,571.069641 
	C376.260620,570.286011 375.412262,566.021973 370.377411,566.176147 
	C376.776184,573.611816 376.240997,583.137878 381.284027,590.963745 
	C384.047485,587.366211 381.267181,584.541016 382.575897,581.185486 
	C386.568573,585.801392 386.650238,591.418884 388.030884,596.232910 
	C391.509369,596.628540 393.255554,595.327759 393.269073,592.150574 
	C395.649567,592.981812 395.250275,595.881287 397.595001,596.641541 
	C398.546356,590.485168 396.606812,584.881104 395.778229,579.163513 
	C403.885498,588.688721 403.594055,599.820862 401.759064,611.370850 
	C405.513611,607.683838 410.713867,605.766785 410.340668,600.042847 
	C412.421021,599.878601 411.675964,602.023926 412.969238,602.197876 
	C414.512939,600.089600 412.729523,597.368835 414.099762,595.216431 
	C416.186249,596.063660 415.257721,598.801270 417.676270,599.689880 
	C417.083435,594.427612 416.522064,589.444336 415.960663,584.461060 
	C420.608612,591.165161 422.819366,598.370422 422.392731,606.390564 
	C422.284210,608.430481 420.984955,611.631165 424.210815,612.359741 
	C427.879639,613.188354 428.258881,609.835205 429.121338,607.361084 
	C429.187408,607.171631 429.662262,607.124634 429.949738,607.012573 
	C431.620453,608.167053 429.196289,610.735962 431.705383,611.804626 
	C434.140686,607.841919 434.189911,603.273010 435.049011,599.221497 
	C436.582642,598.079346 437.548950,600.785339 438.540100,599.695618 
	C441.245270,595.150085 437.865936,591.094055 438.266510,586.780884 
	C440.536194,587.545593 440.690582,589.380615 441.313690,590.847168 
	C444.592010,598.562988 443.355713,606.576294 442.697510,614.516052 
	C442.304443,619.256897 442.674286,623.652771 446.447235,627.979797 
	C447.197266,622.459106 444.526245,617.721313 446.066559,611.624695 
	C447.736633,615.723450 448.831024,618.754150 450.199738,621.655396 
	C451.227814,623.834595 451.797180,626.927551 454.796082,627.006226 
	C457.905853,627.087891 458.870514,624.035034 460.361450,621.866638 
	C461.842712,619.712341 461.509949,616.463074 464.545319,614.680420 
	C465.160095,619.700073 463.055115,623.960999 462.776459,629.200623 
	C467.649719,620.966309 466.851227,616.162720 466.035400,605.329041 
	C465.466492,597.774292 467.436951,589.617981 471.980713,586.079163 
	C470.994507,590.859924 469.116425,595.280945 470.912445,599.625549 
	C472.444061,600.583496 472.816284,597.969543 474.159088,599.032166 
	C476.275299,601.614685 473.930878,605.861389 476.974670,607.717224 
	C479.081787,608.109985 478.204956,605.656311 479.860870,605.765869 
	C480.154419,606.493225 480.477295,607.247742 480.765015,608.015381 
	C481.470764,609.898499 482.010895,612.112671 484.719543,611.585083 
	C487.473450,611.048706 486.886902,608.637207 487.047821,606.730835 
	C487.299957,603.744324 487.267242,600.713318 487.774445,597.773499 
	C488.554443,593.252686 489.861359,588.869080 492.843170,585.220032 
	C493.043915,589.967346 491.543060,594.441040 492.313599,599.409607 
	C493.870850,598.278870 493.620667,595.960022 495.124329,595.678955 
	C500.064575,600.805054 500.299988,609.289917 508.739380,612.474670 
	C508.473572,606.323853 506.038727,600.989380 506.766296,595.321472 
	C507.661194,588.350464 510.248566,582.271545 513.758728,580.316833 
	C513.218689,585.563904 510.534668,590.477844 511.830078,595.741089 
	C514.000244,595.822205 514.148804,593.608337 515.904968,593.224304 
	C516.319519,596.063721 519.579956,594.930847 520.689697,597.619934 
	C522.966309,592.427979 522.221130,586.814575 526.569031,582.709473 
	C526.728882,590.036377 526.728882,590.036377 530.476624,591.547180 
	C530.588440,582.740845 534.681580,575.075439 537.304382,566.869385 
	C533.758911,566.285461 533.339844,570.048889 530.718445,569.918945 
	C530.012695,567.057739 533.726868,565.539795 532.857849,562.393494 
	C528.474060,562.514587 526.755737,567.973633 521.555298,567.902405 
	C532.888306,552.083191 546.078796,540.962158 566.956299,542.554199 
	C564.467957,539.004150 560.898560,540.286133 558.000549,537.291809 
	C567.713928,536.927612 576.158142,534.279480 585.879517,535.923401 
	C586.908813,537.308899 588.696899,540.208191 591.394958,536.399597 
	C593.819275,537.282043 593.968201,540.511536 596.424805,540.188232 
	C598.721985,538.909302 596.372192,536.688843 597.665466,535.272278 
	C600.365540,536.879944 600.297913,540.569275 603.424255,541.674927 
	C604.605896,538.813538 602.772949,535.651672 604.641785,532.709473 
	C607.415649,535.302917 606.950256,539.533264 610.445740,541.172180 
	C613.210815,538.607361 610.255737,534.560974 613.015625,531.824585 
	C615.229309,534.449585 614.368896,538.353333 617.498718,540.406860 
	C620.013000,536.808838 617.402832,532.403687 619.699158,528.765869 
	C622.555664,531.010620 621.613281,535.072449 624.836548,537.259460 
	C626.599304,534.090820 624.903259,530.101440 627.593872,527.401550 
	C629.261841,529.762085 628.849426,532.917969 631.555786,534.549561 
	C633.914856,531.050354 631.133545,526.258667 634.293823,523.008911 
	C636.562378,524.647522 635.375854,527.845154 638.533691,529.393127 
	C639.019897,525.467224 639.470276,521.830688 640.045349,517.187439 
	C643.248352,521.196716 642.349731,526.056885 645.950867,529.266907 
	C648.108826,524.042603 645.715149,518.681641 647.744263,513.742920 
	C650.662781,515.372742 649.291809,519.484436 652.641174,520.678528 
	C654.755127,515.938965 651.393372,510.775238 654.152161,505.707489 
	C655.397461,507.964966 656.351562,509.694672 657.654663,512.056885 
	C659.467773,505.901917 656.376099,500.145782 659.045227,494.571655 
	C661.269226,496.756134 660.190979,500.063873 663.222290,502.348572 
	C664.430176,492.147827 663.286011,482.319946 666.233704,473.057373 
	C668.550598,473.595581 667.453491,476.086517 669.359314,476.553375 
	C671.437378,471.931183 670.376160,466.409821 673.579895,461.453125 
	C675.068909,465.555267 673.757263,469.687012 676.142151,472.928955 
	C682.591858,468.580444 682.896912,448.864807 676.589600,441.438019 
	C677.340454,445.160248 678.918335,448.506317 678.414856,452.374603 
	C676.215881,451.084473 665.974060,453.433716 664.593262,454.359680 
	C659.247925,457.944275 660.986267,464.014343 659.677490,469.091888 
	C658.806702,468.649902 658.373657,468.574554 658.281128,468.355408 
	C658.028076,467.756042 657.822388,467.104462 657.766174,466.458893 
	C656.622620,453.332214 656.142700,440.263550 658.239807,427.118744 
	C660.574768,412.482697 662.233826,397.715790 659.606750,382.905670 
	C658.732605,377.977295 657.313904,373.145508 655.992859,367.638977 
	C658.852295,369.044067 658.940002,371.312744 660.016052,372.900604 
	C661.187012,374.628693 662.181213,376.476624 663.252441,378.272278 
	C654.029602,346.080841 635.349548,325.166321 598.989746,325.332733 
	C602.873230,322.476837 607.601990,323.300659 611.914612,320.966614 
	C604.023499,318.000366 596.271545,318.992554 587.867981,317.613220 
	C592.436401,313.832947 597.643250,314.479065 602.319885,311.328247 
	C591.328369,311.245087 581.906799,314.742584 570.758972,316.087708 
	C574.872009,310.600098 575.359314,305.271912 576.633301,299.625092 
	C579.647705,302.517365 580.855103,300.882812 581.163696,298.238464 
	C581.591614,294.571625 581.675171,290.864594 581.921692,286.926666 
	C584.943054,288.752777 583.338440,292.751862 586.821716,294.462585 
	C589.908325,287.963928 589.253967,281.129974 589.136780,273.072998 
	C592.154724,277.259705 592.517761,281.169830 594.493896,285.360046 
	C598.373352,275.795807 596.488831,266.769867 595.993774,256.420105 
	C599.613647,260.572815 600.133362,264.868134 602.607422,268.555603 
	C604.277405,258.322174 601.076355,249.143723 599.931580,239.722687 
	C604.342773,244.376877 606.210510,250.181946 608.667053,256.808868 
	C609.431396,243.445496 604.722900,232.535767 599.035400,221.307343 
	C602.587036,222.157043 603.306519,225.764084 607.232788,225.676559 
	C602.351501,215.980209 595.550720,208.353928 588.669128,200.716278 
	C593.857361,201.830032 597.093567,206.244827 602.770081,207.857819 
	C594.900513,197.079376 585.967407,188.480881 576.427795,180.374084 
	C581.971741,180.846024 585.595398,185.038528 591.458801,186.503983 
	C583.104126,177.168640 573.354553,170.680817 564.870667,162.722366 
	C572.322083,163.644623 577.643616,169.236786 585.443848,171.636536 
	C580.951599,165.663788 575.755188,162.067551 570.740540,158.251480 
	C564.391968,153.420334 558.120605,148.487747 551.842163,143.032166 
M444.389404,673.848694 
	C447.815216,675.032349 450.060059,673.715881 450.664490,670.309387 
	C452.210876,661.594360 451.306519,653.264343 446.568512,645.489075 
	C444.688538,642.403992 442.748901,641.949036 439.632050,643.523682 
	C433.694824,646.523010 432.217163,654.045532 436.915588,659.002502 
	C437.959534,660.103882 438.350372,661.205994 438.309204,662.538147 
	C438.164795,667.214050 440.275940,670.766174 444.389404,673.848694 
M469.622375,668.846924 
	C471.531006,665.513367 469.705017,661.085510 472.802856,658.089294 
	C476.246948,654.758240 475.307159,650.449829 474.210175,646.878052 
	C472.615143,641.684387 466.295135,641.245972 463.015228,645.526978 
	C457.748932,652.400635 457.226990,660.206665 458.557709,668.274170 
	C458.905457,670.382507 459.290924,673.433838 461.941406,673.875916 
	C464.151489,674.244385 466.335144,672.838745 467.893494,670.967590 
	C468.318115,670.457764 468.764832,669.966370 469.622375,668.846924 
M426.377289,659.844238 
	C426.607422,661.000549 425.999298,662.631653 428.673126,662.903870 
	C429.202087,654.728210 431.839264,646.625671 426.729889,638.905701 
	C425.562317,637.141479 424.862823,634.344604 422.259766,635.095093 
	C420.023560,635.739807 417.963867,637.318237 417.184540,640.051758 
	C414.952759,647.879700 417.822754,654.260742 422.572296,660.961121 
	C423.184052,657.197632 423.675232,654.175781 424.284088,650.429993 
	C426.957184,653.439270 426.017365,656.383240 426.377289,659.844238 
M485.044556,635.803467 
	C477.736847,643.603027 480.576996,652.925781 480.350677,663.229431 
	C484.203400,659.030579 481.834564,654.147156 485.011536,650.883118 
	C487.404785,654.516907 485.043274,658.731445 487.365753,662.575989 
	C491.672241,655.477478 494.057983,648.401917 492.346375,640.643738 
	C491.683960,637.641052 490.112762,634.169922 485.044556,635.803467 
M400.558136,643.469910 
	C404.172882,641.477600 401.279388,637.208496 403.697693,634.385376 
	C406.669189,641.351074 405.148712,648.793152 407.383911,655.706177 
	C407.468048,652.091370 411.487091,650.880676 411.746521,647.449219 
	C412.103546,642.726868 411.047882,638.680115 407.860504,635.084290 
	C406.235657,633.251282 405.512115,630.189880 403.587555,629.143738 
	C399.877625,627.127075 400.381866,632.149475 398.260132,633.459351 
	C394.417511,635.831543 395.807495,641.553894 400.558136,643.469910 
M512.924255,639.779114 
	C514.412842,634.087097 509.768372,631.398621 506.802948,626.758606 
	C502.853577,633.186890 498.084534,638.322205 498.107666,645.817017 
	C498.114105,647.902344 498.384033,650.210876 500.920868,650.381042 
	C503.863831,650.578491 503.570923,647.991394 503.638275,646.067627 
	C503.779388,642.036438 504.014282,638.050598 505.961456,633.948730 
	C507.843231,636.243591 506.898315,638.355896 507.323334,640.236877 
	C507.617645,641.539124 507.649567,642.669983 509.567566,642.922974 
	C511.760406,643.212219 512.726013,642.630188 512.924255,639.779114 
M679.018127,372.364502 
	C675.953003,360.579956 672.337402,348.942444 669.687805,337.032074 
	C669.866882,340.027588 670.445740,342.933746 670.961243,345.851166 
	C674.146790,363.880676 683.178955,380.936798 679.778259,400.069580 
	C683.282471,390.970856 681.956360,382.048309 679.018127,372.364502 
M235.418182,359.045837 
	C237.204971,351.494904 239.540451,344.045685 239.678314,336.183563 
	C237.094086,350.188538 232.352646,363.638092 229.162613,377.480743 
	C228.144348,381.899353 226.853607,386.343292 228.459396,390.904938 
	C228.911667,380.149048 233.118576,370.220642 235.418182,359.045837 
z"/>
<path fill="#000000" opacity="1.000000" stroke="none" 
	d="
M510.268188,325.088440 
	C510.815308,326.921478 508.819885,328.233582 509.796814,330.290436 
	C514.062500,328.429962 515.468262,323.650024 519.312744,321.713745 
	C521.049438,321.835419 519.751038,323.969177 522.050232,324.563080 
	C530.192139,318.567841 535.553467,307.003387 548.712646,306.862213 
	C546.468140,311.035858 540.843140,311.949921 539.446106,317.408539 
	C545.105896,318.081482 550.324341,315.522400 555.716980,316.557129 
	C561.109253,317.591797 566.210815,318.975769 570.470093,323.110596 
	C566.609314,322.674652 562.708313,322.455383 558.897644,321.748749 
	C553.975830,320.836060 549.443054,321.180664 544.851196,323.474915 
	C540.553589,325.622070 535.967896,327.268463 531.382812,328.742859 
	C526.951294,330.167908 524.183594,333.393005 521.463928,336.771667 
	C520.862122,337.519348 520.270508,338.498169 520.876099,339.528839 
	C521.605286,340.769653 522.805969,340.692291 523.970947,340.325439 
	C528.027954,339.047760 532.072632,337.731079 536.473511,337.132355 
	C532.320190,340.834717 527.766602,343.810303 522.462952,345.452118 
	C511.662140,348.795654 500.612823,351.446106 490.742065,357.283173 
	C489.596802,357.960419 488.375000,358.508484 487.186615,359.112427 
	C481.883240,361.807800 475.880280,363.985870 477.912445,372.120911 
	C480.384216,373.101257 481.319489,369.331665 483.879181,369.799286 
	C484.074188,372.692688 480.452484,373.795776 480.640259,376.947479 
	C484.206665,376.933411 485.794403,372.912384 489.094513,372.578125 
	C489.808136,374.735138 487.593170,375.681488 487.714081,377.732391 
	C490.810028,377.293488 492.136871,373.849670 495.223907,373.237854 
	C496.263763,376.196838 492.506165,377.366547 493.044617,380.350220 
	C496.580444,377.804504 498.618378,373.591522 503.393982,372.325775 
	C503.685669,375.419037 500.010498,377.083923 500.946899,380.659454 
	C506.340210,376.407654 510.638397,371.301544 517.623047,367.925781 
	C514.972168,373.578217 510.104950,376.535126 508.671997,381.765228 
	C514.959961,377.738892 518.727539,370.704285 526.586304,366.939636 
	C525.319031,370.642242 523.027100,372.378754 521.456848,374.564850 
	C516.791443,381.059875 512.030945,387.487183 507.412018,394.014801 
	C504.812561,397.688416 501.574127,399.316589 496.918793,399.533142 
	C488.821503,399.909851 480.709991,400.235016 471.976166,400.316254 
	C473.283051,403.115295 475.241058,402.845428 476.889191,402.893616 
	C485.391144,403.142151 493.869568,402.950165 502.308105,401.648163 
	C505.051331,401.224884 506.804291,399.663605 508.361847,397.646210 
	C513.961914,390.392670 519.470459,383.066711 525.164246,375.887604 
	C536.050964,362.161011 550.005127,352.884644 566.732971,347.783600 
	C568.253540,347.319916 569.821289,346.419525 572.348511,347.457794 
	C567.858582,350.851318 562.210632,351.184845 557.878357,355.333832 
	C560.909424,354.807007 563.291565,354.392975 565.673767,353.978943 
	C560.893738,358.329468 554.782471,360.440186 550.109497,365.368134 
	C553.216797,366.230530 555.465820,363.530731 558.843079,364.616638 
	C554.379395,369.154297 548.846436,371.264038 544.545593,375.063507 
	C554.652100,369.505676 564.372559,363.301147 574.494568,357.503693 
	C572.512146,357.898987 570.529663,358.294250 568.554443,358.688080 
	C567.712036,356.775238 569.223999,356.266602 570.088623,355.984955 
	C576.946777,353.751007 581.257874,348.242615 586.313904,343.678223 
	C586.882446,343.164948 587.783447,342.905701 588.571960,342.768524 
	C594.340820,341.765228 600.126526,341.391754 605.982056,342.085754 
	C608.030273,342.328522 610.788391,344.519531 611.855286,340.405426 
	C612.085815,339.516510 613.640564,340.099121 614.601257,340.307495 
	C622.038513,341.920776 628.863464,344.968292 634.901917,349.555206 
	C640.866943,354.086243 641.675293,362.108307 646.703247,366.621674 
	C646.161865,369.295929 644.377136,367.295380 643.686401,368.586090 
	C643.775818,368.943634 643.807251,369.452148 644.021362,369.866241 
	C646.085938,373.859924 648.289368,377.786469 650.214355,381.845398 
	C650.977356,383.454041 653.234924,385.176208 649.918091,387.117493 
	C648.302917,388.062805 650.171692,390.130920 650.935364,391.502777 
	C653.874451,396.782318 656.132874,402.279907 656.907715,408.783966 
	C653.613342,408.153320 653.238525,409.986511 653.227417,412.664612 
	C653.201721,418.868713 654.328064,425.296814 650.439819,431.497009 
	C648.722717,428.367676 650.445312,425.280090 649.177246,422.202545 
	C646.506714,426.118958 646.824036,431.156372 643.133423,435.401764 
	C643.460571,428.581482 645.871338,422.844635 644.386108,416.067871 
	C641.902466,421.230164 641.753235,426.543427 639.141968,430.838196 
	C638.713013,430.756500 638.283997,430.674805 637.854980,430.593109 
	C638.814331,424.106842 639.773743,417.620544 640.733093,411.134277 
	C637.761902,416.907227 636.382019,423.289490 632.910950,429.714935 
	C631.423706,426.087494 633.598816,423.623962 633.437317,419.695953 
	C629.032898,431.447235 628.884033,443.557831 620.989502,452.409271 
	C624.302734,457.522095 629.129700,451.906097 632.445801,454.707458 
	C634.159363,453.523254 634.798035,451.300140 636.948181,450.775482 
	C638.519165,455.537445 628.462280,458.104797 634.686768,463.650818 
	C627.411621,474.384644 617.209412,476.079590 605.643311,472.729523 
	C592.861206,469.027161 580.198059,464.932800 567.004395,462.813416 
	C563.933044,462.320007 561.071960,462.286743 557.934448,463.789612 
	C558.190125,465.471039 558.771667,466.841187 560.841309,466.917664 
	C564.331970,467.046753 566.771790,469.116455 568.675903,471.621338 
	C569.732544,473.011292 570.621887,472.399506 571.671570,472.338440 
	C578.891357,471.918427 583.563049,476.964233 589.219788,480.191620 
	C584.734802,481.392334 578.133484,477.078888 577.025574,486.168732 
	C560.707947,481.636627 543.655396,479.343262 528.739075,470.871704 
	C529.512878,465.260437 537.202271,468.255524 537.206299,461.812469 
	C533.378174,462.368256 529.787598,458.014313 525.874268,462.511658 
	C524.274170,464.350586 522.419250,462.719604 520.951599,461.798981 
	C516.635742,459.091827 513.533264,455.174866 510.600220,451.087646 
	C508.600067,448.300507 506.719666,445.310760 502.502899,443.760132 
	C502.194092,450.845306 510.055359,452.335754 511.144653,458.821014 
	C511.947357,463.599915 517.997253,468.271088 522.941589,471.844238 
	C527.944275,475.459473 532.863953,479.072205 538.876770,481.017212 
	C544.492920,482.833832 549.938599,485.177246 555.861633,487.442627 
	C553.740723,489.894623 551.779785,488.767029 549.931396,488.610779 
	C545.753418,488.257538 541.750000,487.126312 537.738037,486.010925 
	C532.986328,484.689850 529.917786,486.059143 527.619080,490.876801 
	C523.284790,487.461151 520.291077,483.162079 517.675598,478.566956 
	C516.276855,476.109589 515.223694,473.445312 513.719971,471.060089 
	C510.710205,466.285950 508.284393,466.194946 505.110046,471.014435 
	C504.171295,472.439636 502.664154,471.823090 501.899109,472.990875 
	C501.517487,474.797943 503.869934,475.066742 504.045929,476.612457 
	C503.352814,477.973511 501.315765,476.520691 500.758331,478.165070 
	C500.426910,480.515900 503.697266,480.833221 503.576691,483.194397 
	C500.401154,484.285522 499.082001,479.766571 495.457092,480.826721 
	C496.585510,487.819275 501.966309,492.771454 504.113464,499.352112 
	C497.570007,494.131897 493.884033,486.444916 488.290039,480.376312 
	C486.456635,481.732605 488.502472,483.365051 487.393036,484.727356 
	C487.061890,484.642731 486.427307,484.676483 486.243561,484.405060 
	C481.134033,476.855499 478.040741,468.381500 475.853516,459.664459 
	C473.165283,448.950500 469.940918,438.564911 464.295654,428.950836 
	C462.554230,425.985107 461.272797,422.955231 461.874146,418.513458 
	C462.400238,414.627350 464.217865,408.928070 459.530640,404.747742 
	C455.671082,401.305573 453.464691,400.760834 450.132477,404.912048 
	C448.484833,406.964691 447.165558,409.280853 445.719330,411.445404 
	C446.823273,412.627930 448.125336,410.804443 448.497131,411.846893 
	C450.812927,423.288849 443.382843,431.437225 439.319092,440.730194 
	C436.974030,446.092926 435.627380,451.781250 434.310242,457.446167 
	C432.449524,465.448853 429.344025,472.970398 425.903900,480.367828 
	C425.113922,482.066559 424.679504,484.231995 422.515228,484.991913 
	C420.927521,483.700592 422.882843,481.625122 420.932190,480.065063 
	C415.939484,486.692657 411.862152,494.088562 405.148438,499.451263 
	C407.792328,493.055725 412.400452,487.665802 414.666718,481.114471 
	C410.780579,479.039764 409.305389,484.182953 406.097504,483.050354 
	C406.290802,480.374847 409.704285,479.992371 409.924469,477.192963 
	C408.283478,475.893616 406.622284,478.266785 404.724884,477.226471 
	C404.924408,474.698273 408.628204,474.738953 408.747772,471.724884 
	C405.268799,472.899811 404.403931,470.103638 403.045410,467.979492 
	C403.198303,466.149689 406.664032,465.525482 404.576630,462.468445 
	C399.515320,464.803711 396.622406,469.093811 394.240540,473.778381 
	C392.048065,478.090546 389.939941,482.402008 386.734039,486.117523 
	C381.917786,491.699310 381.426300,492.258118 376.373810,487.458893 
	C373.974274,485.179657 372.418304,485.827820 370.424469,486.436798 
	C366.422272,487.659119 362.348175,488.449860 358.219177,488.956146 
	C356.358459,489.184265 354.336884,489.708252 351.254059,487.253204 
	C372.511261,482.785278 389.267334,472.842926 401.777130,456.335968 
	C399.388916,450.964386 408.653900,449.612183 406.060272,443.783966 
	C402.007996,446.183502 399.695038,449.865417 397.129272,453.257172 
	C395.014252,456.053101 393.167969,459.160614 390.097412,460.947357 
	C387.481476,462.469574 385.125183,464.964203 381.526367,461.198730 
	C379.152740,458.715179 375.562195,461.466187 372.514984,462.562439 
	C374.427368,467.480530 379.728119,465.717041 382.778931,469.496552 
	C367.161591,479.335205 349.389008,481.443970 331.876160,486.481720 
	C330.391327,478.946259 325.308472,479.771301 319.903656,480.878754 
	C329.070374,472.580078 341.417877,471.208679 351.576630,464.841705 
	C348.882935,461.602051 345.793671,462.382935 342.723175,462.808350 
	C327.982239,464.850800 314.078705,470.235657 299.656708,473.563385 
	C288.113800,476.226837 280.091278,471.198853 273.305817,462.598572 
	C280.759979,458.166199 271.039856,455.110291 272.856201,450.793732 
	C275.354095,453.636871 278.892548,453.806854 282.131866,454.486847 
	C285.097900,455.109497 287.799286,453.176453 286.201996,450.302612 
	C281.920776,442.599884 280.633881,433.985718 277.275635,425.886719 
	C277.275635,427.212555 277.275635,428.538391 277.275635,431.087799 
	C273.629395,425.166595 272.757172,419.484436 269.433746,414.631500 
	C270.177277,419.955475 270.920807,425.279419 271.664337,430.603394 
	C267.645020,426.580414 267.488617,421.047821 264.886871,415.496552 
	C263.391296,423.015717 266.505127,429.287109 265.572723,436.013733 
	C264.176636,432.265839 262.780548,428.517944 261.186554,424.238800 
	C259.182281,426.927246 261.367889,429.862091 259.216217,432.482941 
	C256.222198,427.753967 256.154022,422.754547 255.948196,417.681732 
	C255.812424,414.334808 258.736237,410.016052 253.201004,407.924652 
	C252.192123,407.543457 253.113174,405.482483 253.396713,404.189056 
	C255.178055,396.062897 260.155365,389.520142 264.632629,382.299561 
	C262.107513,382.686218 261.428528,385.440582 258.119965,384.880524 
	C260.508759,377.556335 264.725067,371.401001 269.000580,364.801392 
	C266.364441,365.646088 265.583160,368.219360 262.892151,368.607941 
	C262.689850,365.226349 264.865692,362.886169 266.760406,361.093292 
	C269.485657,358.514496 269.050568,354.469543 271.450775,352.192078 
	C277.996643,345.980835 285.886139,342.138306 294.794281,340.475739 
	C295.120758,340.414825 295.553314,340.128571 295.744263,340.249878 
	C302.860748,344.770813 310.835907,340.014832 318.204193,342.352478 
	C321.220123,343.309357 324.807770,342.314758 326.421295,346.572540 
	C326.926483,347.905670 329.768066,348.353424 331.726624,349.296234 
	C331.094574,350.039062 330.612823,350.605225 330.023163,351.298248 
	C334.034058,353.896790 338.960449,354.863373 342.613831,358.226562 
	C340.997864,360.560425 339.132050,357.622131 337.481689,358.896637 
	C341.016846,362.712738 346.175720,363.640137 350.243835,366.497314 
	C352.393036,361.085541 355.684021,366.371857 358.714478,365.234406 
	C357.072235,362.349030 354.101257,361.253693 351.633362,359.665985 
	C349.005005,357.975067 346.189545,356.574890 343.450073,355.044556 
	C344.274597,352.570526 346.367981,354.703857 347.423889,353.348267 
	C344.841095,350.126709 340.327637,350.284454 336.725861,347.533813 
	C339.682831,346.073792 341.961792,347.394531 344.072906,348.080383 
	C361.741669,353.820892 376.030853,364.264557 387.020966,379.251526 
	C390.961365,384.624939 395.154480,389.817780 398.971741,395.275299 
	C401.910492,399.476776 405.310028,402.027863 410.772095,402.289215 
	C419.357758,402.700012 427.902863,403.327332 437.181396,402.520874 
	C435.603851,399.763489 433.648193,400.366577 432.032623,400.286346 
	C425.046967,399.939423 418.059753,399.604523 411.069366,399.383362 
	C408.015411,399.286743 405.431732,398.162476 403.656830,395.829315 
	C396.225098,386.060089 389.750916,375.570526 381.550690,366.254974 
	C389.637695,369.451599 394.039551,377.107635 401.553070,383.015594 
	C398.683441,376.260895 394.011658,372.398132 390.954254,367.229492 
	C397.809662,370.631256 403.111572,376.112366 409.603760,381.657593 
	C408.987640,376.670532 405.696320,374.317535 402.977203,369.988098 
	C409.456238,372.827637 412.632935,377.373169 417.355103,381.487396 
	C416.384277,376.787354 412.588135,374.824097 410.977570,370.789398 
	C415.373535,371.833710 417.343781,375.705292 420.963531,376.783966 
	C421.878510,375.420776 419.736877,374.468750 420.734894,372.644409 
	C423.283630,374.266113 425.835968,375.890106 428.855804,377.811554 
	C429.084595,374.348907 426.336304,372.825714 425.384338,370.168060 
	C428.414398,369.473511 429.450867,373.125366 432.415649,372.727600 
	C430.821106,367.269531 429.937225,362.285797 423.380615,359.498138 
	C413.742157,355.400269 404.541046,350.483429 394.117706,348.279114 
	C388.541779,347.099884 383.267548,344.493896 376.710602,342.116028 
	C382.275055,339.472168 386.392578,343.605713 391.325378,342.040741 
	C386.617584,331.720581 376.806122,329.456024 368.202515,324.856873 
	C358.488708,319.664246 348.981812,322.466705 339.244141,322.436920 
	C346.522003,317.364075 354.350372,315.184570 363.107910,316.717224 
	C364.892883,317.029633 367.378265,318.708710 368.390076,316.064575 
	C369.218048,313.900818 366.780029,312.716919 365.435608,311.301575 
	C363.990021,309.779755 361.537933,309.385468 360.289124,306.166382 
	C366.329468,307.654755 371.545380,309.096130 375.747955,313.005737 
	C379.739166,316.718750 383.120056,321.119781 387.839844,323.982971 
	C389.659973,322.571716 386.849792,321.070618 388.502533,319.621094 
	C392.013916,321.525208 393.385345,326.230377 397.314026,327.360321 
	C399.569336,326.623657 397.333527,324.702637 398.942841,323.748260 
	C402.076202,325.103363 403.376617,328.949463 406.464325,330.165192 
	C408.207550,330.167419 407.415985,327.854187 409.258972,327.982483 
	C411.838867,329.680450 412.753998,333.335602 415.697510,334.893646 
	C417.599274,334.386963 416.173676,332.273804 417.797058,331.486206 
	C418.987122,332.620117 420.265015,333.837738 421.388245,334.908020 
	C423.227905,334.738892 422.524689,333.246063 423.240021,332.451782 
	C424.862274,331.823395 424.970245,334.998199 426.916260,333.977325 
	C429.222351,331.662292 427.651978,327.603149 430.682892,324.568024 
	C433.747803,338.758270 432.881348,353.775604 445.029602,364.773743 
	C446.325531,358.727661 442.694672,353.549286 444.337433,347.288666 
	C447.656738,351.451569 447.010834,356.769470 451.146912,360.909485 
	C453.922943,353.824005 451.505585,346.527252 454.769379,339.280487 
	C457.611420,346.133392 455.839264,353.133759 458.348053,359.569519 
	C462.898315,357.067627 461.731750,351.861359 464.735321,348.467834 
	C466.869537,353.867065 463.127258,359.028168 464.740631,364.377319 
	C476.541412,354.061310 475.490448,339.368652 478.905823,325.574066 
	C481.286865,328.560211 480.946442,331.525085 481.904327,334.094116 
	C483.636871,334.839417 486.815735,331.745728 486.685669,336.058868 
	C489.050690,335.600220 489.352692,333.171051 491.283295,332.549591 
	C493.039856,332.953644 491.522766,335.015106 492.985046,335.871582 
	C496.051575,334.511597 497.088501,330.934753 500.043152,328.674896 
	C501.619019,332.014404 503.328278,330.981049 505.234253,328.812408 
	C506.603271,327.254730 507.531403,325.026123 510.268188,325.088440 
M286.326447,362.357910 
	C285.798981,363.022766 284.361816,362.896057 284.651398,364.690063 
	C295.232788,358.085327 306.401031,353.936310 318.892517,354.300812 
	C307.387299,353.445251 296.703644,355.962921 286.326447,362.357910 
M636.297424,402.732269 
	C635.667603,407.101624 635.037781,411.471008 634.407959,415.840363 
	C638.752686,404.585022 638.729065,394.044159 634.077454,388.965759 
	C636.860046,393.594147 637.218262,397.652191 636.297424,402.732269 
M305.518311,454.999146 
	C307.926788,453.749054 308.848358,451.712067 306.502045,450.073303 
	C304.711639,448.822723 301.838440,446.921173 299.872101,450.899811 
	C301.622833,452.292664 303.267792,453.601379 305.518311,454.999146 
M631.811279,368.522034 
	C626.698059,364.269348 621.218872,360.645416 614.731079,358.726898 
	C621.783813,362.524872 628.547485,366.750305 635.063171,372.749084 
	C634.576233,370.278870 633.104919,369.911255 631.811279,368.522034 
M430.342438,433.824921 
	C430.596283,432.163696 429.657440,431.793213 428.944153,433.084259 
	C426.509613,437.490875 424.045715,441.940552 423.058960,448.399445 
	C425.825989,442.896362 427.971100,438.630157 430.342438,433.824921 
M628.298157,406.070343 
	C628.298157,407.039764 628.298157,408.009186 628.298157,410.083160 
	C630.602783,405.627716 631.052185,401.995300 630.431152,398.129242 
	C630.596008,400.683258 628.188477,399.120972 627.296875,400.056305 
	C627.629761,401.852814 627.955017,403.608154 628.298157,406.070343 
z"/>
<path fill="#000000" opacity="1.000000" stroke="none" 
	d="
M462.924591,444.802673 
	C466.781769,446.194855 467.403687,449.526001 468.253296,452.473907 
	C473.737183,471.500244 479.975647,490.260468 487.246704,508.685059 
	C489.924652,515.470886 493.242676,522.017944 494.636658,529.311157 
	C495.455750,533.596741 495.380707,537.644653 493.322876,541.434387 
	C489.751923,548.010803 486.047485,554.519592 482.219696,560.949890 
	C479.930756,564.795166 476.068481,566.618225 471.960419,565.302795 
	C466.966339,563.703613 465.996521,565.599731 466.282715,569.873291 
	C466.322876,570.472717 465.980011,571.097778 465.482117,572.941528 
	C461.261017,560.640869 458.585632,549.073730 454.761810,537.616394 
	C451.012360,548.802612 448.615417,560.042908 444.528290,571.034241 
	C442.080872,569.405151 443.638916,566.515442 441.713745,564.959229 
	C440.692932,564.309021 439.623779,565.068115 438.521759,565.300964 
	C433.559509,566.349792 429.578033,564.841797 426.987335,560.468811 
	C423.341431,554.314575 419.756195,548.116089 416.401123,541.800476 
	C413.479156,536.299988 413.969971,530.438599 416.016205,524.843506 
	C422.241425,507.821716 429.411743,491.147125 434.775360,473.808197 
	C437.182556,466.026550 439.345520,458.163544 441.967529,450.455963 
	C444.224304,443.822174 445.964813,443.282501 451.478851,447.204071 
	C453.977142,448.980835 455.941986,448.887085 458.168427,447.002136 
	C459.424713,445.938568 460.742584,444.852081 462.924591,444.802673 
M474.401306,553.553833 
	C483.716187,555.274414 473.873138,547.905151 477.035004,547.582581 
	C476.815186,549.337341 473.180298,550.054260 474.401306,553.553833 
z"/>
<path fill="#000000" opacity="1.000000" stroke="none" 
	d="
M458.995483,285.610168 
	C457.937958,296.701019 456.952881,307.328552 455.967773,317.956085 
	C445.532837,273.152008 452.724976,228.147964 452.917450,182.857315 
	C455.805878,185.760895 460.292847,265.088654 458.995483,285.610168 
z"/>
<path fill="#000000" opacity="1.000000" stroke="none" 
	d="
M267.392212,499.876221 
	C263.704956,495.524536 262.371124,490.775665 262.673676,485.333893 
	C263.018616,479.130554 263.040710,472.898193 262.077301,466.535492 
	C267.435699,472.300049 273.986115,476.036804 279.842712,480.457275 
	C283.540894,483.248596 287.595520,485.884521 291.423737,488.685822 
	C293.647888,490.313354 296.180511,489.903564 298.653412,489.907898 
	C305.739807,489.920319 312.826202,489.912262 319.996429,489.912262 
	C320.603546,491.614410 317.942505,491.383148 318.118408,493.329102 
	C320.307465,495.678802 324.555969,494.762604 327.311157,497.634491 
	C324.246368,498.874908 321.454834,498.609711 318.711456,498.333740 
	C308.790466,497.335815 298.869171,496.329102 288.965790,495.173584 
	C284.671600,494.672577 280.489563,493.710754 276.543365,491.693115 
	C271.135132,488.927948 268.188293,491.098602 268.388885,497.363068 
	C268.418030,498.272034 269.842194,499.678101 267.392212,499.876221 
z"/>
<path fill="#000000" opacity="1.000000" stroke="none" 
	d="
M507.259521,260.774597 
	C512.983948,254.824112 519.765076,250.985382 526.758728,247.421555 
	C537.025879,242.189606 538.307434,237.534256 532.446716,227.502335 
	C531.645752,226.131302 530.395081,224.943695 530.281006,222.848022 
	C533.213196,223.068192 534.001587,226.432678 536.625000,226.590973 
	C539.732178,225.158844 540.068420,221.026367 543.226746,219.377808 
	C544.244080,221.614746 543.070068,223.227005 542.633545,224.909241 
	C541.965820,227.482330 541.231262,230.006897 541.248901,232.727417 
	C541.307312,241.745361 543.792419,243.693069 552.319458,241.501495 
	C558.155396,240.001572 564.052917,238.741043 570.106567,237.936569 
	C566.976196,241.196609 562.799377,242.377579 558.974365,244.018265 
	C552.448303,246.817535 548.677063,251.544708 547.036194,258.301849 
	C545.587280,264.268707 543.977356,270.196503 542.434326,276.140442 
	C542.231506,276.922089 542.116760,277.782104 540.266052,278.133789 
	C540.077393,269.445251 541.570557,260.848022 540.342041,252.143326 
	C534.911804,251.758179 531.424622,255.846954 527.340942,257.158386 
	C525.154236,256.909210 526.424805,254.517792 524.440002,254.106064 
	C519.598450,255.959229 514.928833,258.791138 510.222046,261.583282 
	C509.377380,262.084351 507.436005,264.707550 507.259521,260.774597 
z"/>
<path fill="#000000" opacity="1.000000" stroke="none" 
	d="
M594.307617,489.563110 
	C598.514954,489.623566 602.375916,489.379944 606.165039,489.793823 
	C612.973022,490.537476 618.130188,488.434509 623.932556,484.382385 
	C628.251343,481.366364 632.028076,477.140808 637.433777,475.130981 
	C641.058472,473.783325 643.681763,469.742462 647.454590,466.258911 
	C647.307007,473.188049 645.548523,479.376984 646.572144,485.567993 
	C647.567322,491.586517 643.486145,494.792816 640.338623,499.167297 
	C638.546753,496.890656 639.787842,494.997711 638.766602,493.291656 
	C637.573669,491.298859 636.708740,489.836060 634.236694,491.061005 
	C622.974731,496.641602 610.626953,496.028473 598.616821,497.213470 
	C593.474731,497.720856 588.292297,499.393860 582.396545,497.703857 
	C585.411011,494.585114 589.456360,495.631470 591.917725,493.977570 
	C593.165771,492.052734 590.738525,491.551514 591.070679,490.224640 
	C591.914795,489.333466 592.963135,489.629791 594.307617,489.563110 
z"/>
<path fill="#000000" opacity="1.000000" stroke="none" 
	d="
M379.181305,522.790283 
	C383.763275,525.360596 384.496124,526.136353 388.958069,533.264648 
	C379.950317,534.071777 370.861206,533.961365 364.072723,528.223206 
	C356.601776,521.908203 349.030548,516.903198 339.039948,515.581909 
	C345.965485,513.297791 352.467072,510.511017 359.957153,511.284058 
	C364.771454,511.780914 369.564331,513.995300 374.743317,510.983368 
	C376.991730,509.675751 380.753235,512.303040 384.497192,510.668549 
	C383.161957,514.175049 380.399719,515.071777 378.606750,516.889526 
	C376.474243,519.051453 376.362946,520.822144 379.181305,522.790283 
z"/>
<path fill="#000000" opacity="1.000000" stroke="none" 
	d="
M528.527100,511.658142 
	C537.937256,511.177246 547.048889,512.357910 556.222046,511.804230 
	C560.936584,511.519653 565.800781,513.715210 570.622864,514.795715 
	C570.411011,516.708252 569.156311,516.298828 568.351746,516.398560 
	C560.342468,517.391235 553.758423,520.763489 547.759460,526.387390 
	C540.415710,533.271973 531.012146,534.234741 520.573486,532.927002 
	C523.604431,529.541992 525.573975,526.251099 529.266052,524.336853 
	C534.171692,521.793335 534.183899,519.313232 529.791138,515.758606 
	C528.283630,514.538696 526.353943,513.695679 525.703247,511.611053 
	C526.568542,510.221100 527.413452,511.363831 528.527100,511.658142 
z"/>
<path fill="#000000" opacity="1.000000" stroke="none" 
	d="
M408.144836,513.244995 
	C410.774841,507.696564 413.433807,502.600342 417.028381,497.742981 
	C418.808502,499.488251 417.655914,500.792633 417.188324,502.026550 
	C413.893036,510.722565 410.709656,519.466125 407.168579,528.061768 
	C405.316711,532.557068 405.783051,536.712402 407.350677,541.065796 
	C410.364075,549.434326 414.922668,556.932495 419.940735,564.202026 
	C420.953278,565.668823 422.416992,566.928162 422.640900,569.430176 
	C417.667023,568.417419 416.475861,562.507080 412.155396,561.568970 
	C409.686371,562.249573 410.922302,564.655518 409.478119,565.991577 
	C408.747681,564.900696 408.056152,563.867920 407.463226,562.982422 
	C405.541962,562.047546 405.614655,564.772827 404.715546,564.608826 
	C399.900238,558.846252 398.851562,552.608887 398.637573,545.508423 
	C398.349121,535.938232 400.418182,527.484253 405.167755,519.413818 
	C406.258972,517.559570 407.049255,515.528320 408.144836,513.244995 
z"/>
<path fill="#000000" opacity="1.000000" stroke="none" 
	d="
M497.163818,561.251587 
	C493.170715,563.316223 491.479523,567.856750 485.897980,569.937866 
	C489.023254,565.127625 491.311401,561.380737 493.823364,557.790405 
	C497.981140,551.847778 500.640564,545.236389 502.950562,538.432617 
	C503.963928,535.447876 503.699310,532.612000 502.826385,529.635132 
	C500.100891,520.340576 495.945251,511.598511 492.583557,502.552032 
	C491.973114,500.909210 490.667725,499.415771 491.311035,497.390350 
	C493.257263,497.503357 493.644409,499.154602 494.344971,500.337433 
	C499.783905,509.520782 504.514771,519.087769 508.768280,528.852539 
	C512.582153,537.608093 509.995880,546.964355 509.837982,556.002441 
	C509.801453,558.094055 505.264008,560.062866 506.103821,563.658569 
	C504.024628,564.459839 504.171539,561.756287 502.768860,561.995667 
	C500.887146,562.790955 501.949799,565.261719 500.194489,566.101624 
	C497.867798,565.267700 499.622559,562.126892 497.163818,561.251587 
z"/>
<path fill="#000000" opacity="1.000000" stroke="none" 
	d="
M451.913147,565.258911 
	C453.031128,559.669434 452.478851,554.268372 454.404480,548.924194 
	C458.064178,556.829834 460.244263,591.320923 454.912415,597.873779 
	C450.403229,587.133301 451.244659,576.414490 451.913147,565.258911 
z"/>
<path fill="#000000" opacity="1.000000" stroke="none" 
	d="
M426.273438,95.303619 
	C422.667664,94.764633 419.726898,96.948845 416.456451,96.136543 
	C422.440094,88.752205 444.591522,86.950256 457.913055,93.144707 
	C446.952911,93.899231 436.841431,94.595337 426.273438,95.303619 
z"/>
<path fill="#000000" opacity="1.000000" stroke="none" 
	d="
M655.063416,438.804077 
	C653.986084,445.794464 653.986511,452.652008 649.042725,458.059875 
	C648.654114,448.005585 651.065491,438.471161 654.477844,428.370300 
	C656.474915,432.063812 654.804199,435.290588 655.063416,438.804077 
z"/>
<path fill="#000000" opacity="1.000000" stroke="none" 
	d="
M450.590668,145.594788 
	C450.759613,142.110962 450.419983,138.953094 453.242279,135.095016 
	C452.812897,147.349991 456.142853,158.330658 452.479126,169.325302 
	C450.391052,161.664581 450.447113,153.849304 450.590668,145.594788 
z"/>
<path fill="#000000" opacity="1.000000" stroke="none" 
	d="
M391.345398,502.336609 
	C389.824921,503.578552 388.634338,504.733246 385.334808,504.584656 
	C391.088837,497.574188 395.294739,490.665100 397.990448,482.525909 
	C400.946533,488.595306 398.039703,496.904449 391.345398,502.336609 
z"/>
<path fill="#000000" opacity="1.000000" stroke="none" 
	d="
M516.267456,500.687805 
	C510.794342,496.408295 511.100830,490.499176 510.678894,484.722107 
	C515.196167,491.113739 518.358276,498.239685 524.572754,504.912109 
	C520.122009,504.689636 518.621338,502.266998 516.267456,500.687805 
z"/>
<path fill="#000000" opacity="1.000000" stroke="none" 
	d="
M297.348267,507.729004 
	C304.709961,508.026886 310.482574,513.012695 317.711365,512.268860 
	C312.248474,516.070190 297.628265,513.481934 292.197205,508.244019 
	C293.691406,507.075806 295.390167,507.962280 297.348267,507.729004 
z"/>
<path fill="#000000" opacity="1.000000" stroke="none" 
	d="
M615.551758,510.075928 
	C608.011169,514.091187 600.306030,514.236328 592.409363,513.154297 
	C601.030151,512.213745 608.506531,505.949890 617.700012,507.817841 
	C617.887451,509.289185 616.487427,509.254578 615.551758,510.075928 
z"/>
<path fill="#000000" opacity="1.000000" stroke="none" 
	d="
M554.086670,256.495117 
	C554.963928,255.842148 555.616455,255.415497 556.268982,254.988861 
	C554.480591,261.918793 550.459656,267.754364 548.741821,274.556183 
	C546.984375,267.545929 548.516296,261.563232 554.086670,256.495117 
z"/>
<path fill="#000000" opacity="1.000000" stroke="none" 
	d="
M330.487976,502.242157 
	C333.981201,502.416077 337.073364,502.657166 341.509979,503.003113 
	C334.778320,508.060028 328.156433,505.216064 322.251678,506.854340 
	C324.082001,503.637817 327.257416,503.298370 330.487976,502.242157 
z"/>
<path fill="#000000" opacity="1.000000" stroke="none" 
	d="
M570.603394,504.989746 
	C569.652832,504.117493 569.219055,503.235840 570.470398,502.973114 
	C576.629028,501.680267 582.541565,501.942657 587.689575,506.420105 
	C582.080566,506.302368 576.446289,506.862823 570.603394,504.989746 
z"/>
<path fill="#000000" opacity="1.000000" stroke="none" 
	d="
M456.889618,435.949524 
	C456.306580,438.523468 456.607452,440.959198 454.747009,443.713440 
	C452.019379,437.466003 452.579620,431.991333 454.187256,425.632690 
	C456.164398,429.199615 456.262238,432.450317 456.889618,435.949524 
z"/>
<path fill="#000000" opacity="1.000000" stroke="none" 
	d="
M549.520325,207.090027 
	C548.815308,208.806030 548.223999,210.151688 546.908752,211.053040 
	C544.731323,206.375107 546.446716,201.100250 552.107361,196.201340 
	C551.186584,200.154785 550.420410,203.444611 549.520325,207.090027 
z"/>
<path fill="#000000" opacity="1.000000" stroke="none" 
	d="
M482.512360,95.714478 
	C480.084686,97.252609 473.357544,95.986671 469.339813,93.364388 
	C474.381348,90.303528 478.238464,93.595879 482.512360,95.714478 
z"/>
<path fill="#000000" opacity="1.000000" stroke="none" 
	d="
M449.863464,660.022827 
	C449.363770,662.603699 450.007355,665.046448 447.707336,667.859558 
	C446.353546,662.563782 445.448273,658.096069 446.452911,652.697876 
	C449.380219,654.849365 450.008392,657.063965 449.863464,660.022827 
z"/>
<path fill="#000000" opacity="1.000000" stroke="none" 
	d="
M459.990234,664.454895 
	C459.846710,659.855286 459.952850,655.709839 462.441742,650.599792 
	C464.080658,657.587158 463.156830,663.068726 461.870209,668.697327 
	C459.869873,667.859436 460.337097,666.185974 459.990234,664.454895 
z"/>
</svg>